<svg width="252" height="57" viewBox="0 0 252 57" fill="none" xmlns="http://www.w3.org/2000/svg">
<path d="M59.6387 16.3412C59.9847 16.3412 60.9577 16.3942 61.3177 16.3942C61.9307 16.3942 62.5167 16.3552 62.8097 16.3552C62.9707 16.3552 63.1697 16.3942 63.1697 16.5012C63.1697 16.6082 63.0767 16.6612 62.8237 16.7142C62.3037 16.8212 62.2907 17.0342 62.2507 17.6472C62.2367 18.1002 62.1977 19.4202 62.2367 19.8332C62.2507 20.0322 62.2637 20.1392 62.3437 20.1522C63.0367 20.1662 65.7017 20.1392 65.9687 20.1262C66.1017 20.1122 66.1677 20.0862 66.1677 19.9932C66.1677 18.9262 66.1817 18.2732 66.1407 17.5272C66.1017 17.0482 66.0747 16.8212 65.4887 16.6742C65.3687 16.6482 65.1417 16.6082 65.1417 16.4742C65.1417 16.3552 65.3417 16.3282 65.4887 16.3282C65.6217 16.3282 66.7277 16.3942 67.0747 16.3942C67.5137 16.3942 68.4997 16.3412 68.5937 16.3412C68.9137 16.3412 68.9937 16.4212 68.9937 16.5012C68.9937 16.5812 68.8867 16.6482 68.6867 16.7012C68.0997 16.8472 68.0077 16.9142 67.9807 17.4342C67.9407 18.3272 67.9277 19.2202 67.9277 20.8192C67.9277 21.9252 67.9137 22.9912 67.9807 23.6172C68.0467 24.1502 68.1537 24.3372 68.6997 24.4702C68.9267 24.5502 69.0067 24.6032 69.0067 24.6702C69.0067 24.7902 68.8867 24.8432 68.6867 24.8432C68.4727 24.8432 67.2877 24.7772 66.9147 24.7772C66.6477 24.7772 65.7147 24.8032 65.4747 24.8032C65.3417 24.8032 65.1287 24.7502 65.1287 24.6572C65.1287 24.5502 65.2757 24.4972 65.4357 24.4702C66.0217 24.3102 66.1017 24.2162 66.1547 23.1512C66.1677 22.6572 66.1817 21.6582 66.1547 21.1122C66.1287 20.7782 66.0617 20.7652 65.9547 20.7652C65.6487 20.7652 62.4907 20.7652 62.3437 20.7782C62.2907 20.7922 62.2507 20.9662 62.2367 21.0722C62.1977 21.3922 62.1977 22.7242 62.2767 23.5372C62.3167 24.1242 62.3967 24.2842 62.9967 24.4432C63.2637 24.4972 63.3297 24.5772 63.3297 24.6572C63.3297 24.7232 63.2637 24.8162 62.9967 24.8162C62.9167 24.8162 61.8107 24.7772 61.3577 24.7772C61.0507 24.7772 60.1317 24.8572 59.6657 24.8572C59.4787 24.8572 59.3057 24.8162 59.3057 24.6832C59.3057 24.5772 59.4917 24.5102 59.5977 24.4972C60.2387 24.3772 60.3317 24.2162 60.3707 23.4042C60.3977 22.9512 60.4117 21.9782 60.4117 20.4322C60.4117 19.1672 60.4117 18.1532 60.3577 17.4742C60.3187 17.0082 60.2387 16.8352 59.7187 16.7012C59.4117 16.6342 59.3317 16.5682 59.3317 16.4742C59.3317 16.4212 59.4517 16.3412 59.6387 16.3412Z" fill="#2A2558"/>
<path d="M74.7965 20.7518C74.5835 20.0988 74.1435 18.8728 73.9435 18.3538C73.8905 18.2198 73.8105 18.2198 73.7835 18.2998C73.6905 18.5538 73.1035 20.1258 72.9845 20.7658C72.9705 20.8318 72.9845 20.9118 73.0505 20.9258C73.4375 20.9258 74.6365 20.9388 74.7695 20.9258C74.7965 20.9118 74.8365 20.8458 74.7965 20.7518ZM75.0355 16.3948C75.0625 16.5278 75.1155 16.6478 75.1835 16.8478C76.0755 19.4198 77.3015 22.3248 77.5545 23.0178C78.0615 24.1498 78.2075 24.2968 78.7945 24.4838C79.0075 24.5108 79.1135 24.6168 79.1135 24.6698C79.1135 24.7368 79.0475 24.8568 78.7805 24.8568C78.4345 24.8568 76.9285 24.7768 76.6355 24.7768C76.2225 24.7768 75.7695 24.8298 75.3965 24.8298C75.1565 24.8298 75.0495 24.7368 75.0495 24.6838C75.0495 24.5768 75.1425 24.5228 75.3165 24.4698C75.8885 24.2838 75.9025 24.1498 75.9025 23.9108C75.9025 23.7368 75.3165 22.2048 75.1955 21.8178C75.1425 21.7258 75.0765 21.5648 74.9695 21.5648C74.6625 21.5388 73.5565 21.5388 72.8105 21.5648C72.7835 21.5648 72.6775 21.6848 72.6375 21.8048C72.4245 22.3648 72.0775 23.5508 72.0775 23.8168C72.0775 24.1238 72.2505 24.3238 72.8245 24.5108C73.1035 24.5898 73.1445 24.6298 73.1445 24.7098C73.1565 24.7768 73.0505 24.8428 72.8635 24.8428C72.3305 24.8428 71.9985 24.7768 71.4915 24.7768C71.0515 24.7768 70.6785 24.8428 70.3325 24.8428C70.1855 24.8428 70.0395 24.8158 70.0255 24.6968C70.0255 24.6038 70.1325 24.5638 70.3055 24.5228C71.0115 24.3368 71.1975 24.0578 71.5845 23.2048C71.9575 22.3778 73.4105 18.1928 73.8105 16.9808C73.8505 16.8748 73.8905 16.6748 73.8905 16.5948C73.8905 16.5278 73.9035 16.5548 73.9035 16.4608C73.9035 16.3818 74.0095 16.2878 74.0635 16.2748C74.1705 16.2348 74.7965 16.2218 74.9165 16.2608C74.9565 16.2748 75.0235 16.3408 75.0355 16.3948Z" fill="#2A2558"/>
<path d="M80.5581 16.3549C80.9571 16.3549 81.8641 16.3949 82.1971 16.3949C82.7961 16.3949 83.4101 16.3549 83.7431 16.3549C83.9161 16.3549 84.0621 16.4609 84.0621 16.5009C84.0621 16.5949 83.9821 16.7009 83.7161 16.7549C83.1961 16.8749 83.1291 17.0079 83.1031 17.5669C83.1031 17.7669 83.0901 19.2069 83.0901 20.5789C83.1031 21.9249 83.1171 23.6049 83.1561 24.0309C83.1691 24.1639 83.2891 24.2969 83.3831 24.2969C84.4751 24.2839 85.5551 24.2709 86.6611 24.2569C86.7411 24.2569 86.8211 24.1499 86.8211 24.0839C86.8611 23.2979 86.8611 18.5669 86.8611 17.5939C86.8481 17.1009 86.8071 16.8879 86.2871 16.7279C86.1411 16.6879 85.9411 16.6209 85.9411 16.5009C85.9411 16.4609 86.1151 16.3549 86.2211 16.3549C86.4341 16.3549 87.4871 16.3949 87.8071 16.3949C88.2731 16.3949 89.2731 16.3549 89.3661 16.3549C89.6191 16.3549 89.7131 16.4209 89.7131 16.4879C89.7131 16.5679 89.6861 16.6619 89.3531 16.7549C88.8731 16.8749 88.7401 17.0349 88.7261 17.5409C88.7401 17.1279 88.6601 20.8859 88.6331 22.8049C88.6331 23.3509 88.6461 23.7639 88.6461 23.8709C88.6461 24.0309 88.7261 24.2839 88.8731 24.2839L89.6601 24.3369C89.7261 24.3369 89.7661 24.4569 89.7261 24.5769C89.6061 24.9369 89.3261 25.8689 89.2601 26.4959C89.2461 26.7219 89.1391 26.9489 89.0061 26.9489C88.8601 26.9489 88.8201 26.7889 88.8461 26.4819C88.8601 26.2829 88.8601 25.9629 88.8601 25.8159C88.8601 24.8039 88.5391 24.7769 87.8871 24.7769H82.0501C81.7571 24.7769 81.0111 24.8569 80.5041 24.8569C80.2111 24.8569 80.1311 24.7369 80.1311 24.7099C80.1311 24.6039 80.3181 24.4839 80.4641 24.4569C81.1311 24.3239 81.1971 24.2039 81.2501 23.4039C81.2771 22.8979 81.3041 22.0719 81.3041 20.2459C81.3041 18.7799 81.2901 18.1009 81.2501 17.5009C81.2241 17.0079 80.9841 16.9009 80.5171 16.7549C80.2381 16.6479 80.2251 16.5409 80.2251 16.5009C80.2251 16.4209 80.3981 16.3549 80.5581 16.3549Z" fill="#2A2558"/>
<path d="M92.1704 17.7411C92.1174 17.0341 92.1174 16.8611 91.5034 16.7011C91.2374 16.6351 91.1714 16.5411 91.1714 16.4741C91.1714 16.4211 91.2774 16.3411 91.4774 16.3411C91.7974 16.3411 92.6774 16.3941 93.1304 16.3941C93.8104 16.3941 94.2364 16.3411 94.6894 16.3411C94.8224 16.3411 95.0354 16.3821 95.0354 16.4881C95.0354 16.5951 94.9154 16.6481 94.7154 16.7011C94.2624 16.8081 94.1154 16.8741 94.0764 17.5671C94.0234 18.1141 94.0094 18.8331 94.0094 19.7661C94.0094 21.9111 94.0354 22.8981 94.0624 23.2311C94.1294 24.1111 94.1954 24.2841 94.8884 24.4571C95.0354 24.4971 95.1554 24.5501 95.1554 24.6701C95.1554 24.7771 95.0094 24.8301 94.8224 24.8301C94.3164 24.8301 93.3834 24.7771 93.1434 24.7771C92.7574 24.7771 91.9304 24.8301 91.4104 24.8301C91.2644 24.8301 91.0914 24.7901 91.0914 24.6431C91.0914 24.5771 91.2244 24.4971 91.3984 24.4571C92.1174 24.2431 92.1564 24.1631 92.1834 23.2981C92.1974 22.7641 92.1974 21.1521 92.1974 20.2461C92.1974 19.3001 92.2104 18.1801 92.1704 17.7411Z" fill="#2A2558"/>
<path d="M99.7559 17.1405C99.3029 17.5805 98.8099 18.4605 98.8099 20.3395C98.8099 21.4185 99.1829 22.6045 99.8089 23.4315C100.356 24.1365 101.076 24.5895 101.861 24.5895C102.328 24.5895 102.795 24.3235 103.021 24.0975C103.608 23.5365 103.954 22.3115 103.954 20.8585C103.954 19.9525 103.541 16.5545 101.062 16.5545C100.516 16.5545 99.9429 16.9545 99.7559 17.1405ZM106.006 20.5655C106.006 22.0055 105.353 23.1635 104.473 23.9505C103.794 24.5365 102.768 25.0165 101.462 25.0165C98.9029 25.0165 96.8109 23.2045 96.8109 20.5255C96.8109 18.9135 97.3969 18.0205 98.2909 17.2205C98.8499 16.7545 99.9829 16.1555 101.369 16.1555C104.766 16.1555 106.006 18.7935 106.006 20.5655Z" fill="#2A2558"/>
<path d="M108.118 16.3412C108.465 16.3412 109.437 16.3942 109.797 16.3942C110.41 16.3942 110.996 16.3552 111.289 16.3552C111.45 16.3552 111.649 16.3942 111.649 16.5012C111.649 16.6082 111.556 16.6612 111.303 16.7142C110.783 16.8212 110.77 17.0342 110.73 17.6472C110.717 18.1002 110.677 19.4202 110.717 19.8332C110.73 20.0322 110.743 20.1392 110.823 20.1522C111.516 20.1662 114.181 20.1392 114.448 20.1262C114.581 20.1122 114.647 20.0862 114.647 19.9932C114.647 18.9262 114.661 18.2732 114.621 17.5272C114.581 17.0482 114.555 16.8212 113.968 16.6742C113.848 16.6482 113.621 16.6082 113.621 16.4742C113.621 16.3552 113.821 16.3282 113.968 16.3282C114.101 16.3282 115.207 16.3942 115.554 16.3942C115.994 16.3942 116.979 16.3412 117.073 16.3412C117.393 16.3412 117.473 16.4212 117.473 16.5012C117.473 16.5812 117.366 16.6482 117.166 16.7012C116.58 16.8472 116.487 16.9142 116.46 17.4342C116.42 18.3272 116.407 19.2202 116.407 20.8192C116.407 21.9252 116.393 22.9912 116.46 23.6172C116.526 24.1502 116.633 24.3372 117.18 24.4702C117.406 24.5502 117.486 24.6032 117.486 24.6702C117.486 24.7902 117.366 24.8432 117.166 24.8432C116.953 24.8432 115.767 24.7772 115.394 24.7772C115.127 24.7772 114.194 24.8032 113.955 24.8032C113.821 24.8032 113.608 24.7502 113.608 24.6572C113.608 24.5502 113.755 24.4972 113.915 24.4702C114.501 24.3102 114.581 24.2162 114.635 23.1512C114.647 22.6572 114.661 21.6582 114.635 21.1122C114.608 20.7782 114.541 20.7652 114.434 20.7652C114.128 20.7652 110.97 20.7652 110.823 20.7782C110.77 20.7922 110.73 20.9662 110.717 21.0722C110.677 21.3922 110.677 22.7242 110.756 23.5372C110.797 24.1242 110.877 24.2842 111.476 24.4432C111.743 24.4972 111.809 24.5772 111.809 24.6572C111.809 24.7232 111.743 24.8162 111.476 24.8162C111.396 24.8162 110.29 24.7772 109.837 24.7772C109.53 24.7772 108.611 24.8572 108.145 24.8572C107.958 24.8572 107.785 24.8162 107.785 24.6832C107.785 24.5772 107.971 24.5102 108.078 24.4972C108.718 24.3772 108.811 24.2162 108.85 23.4042C108.877 22.9512 108.891 21.9782 108.891 20.4322C108.891 19.1672 108.891 18.1532 108.838 17.4742C108.798 17.0082 108.718 16.8352 108.198 16.7012C107.891 16.6342 107.811 16.5682 107.811 16.4742C107.811 16.4212 107.931 16.3412 108.118 16.3412Z" fill="#2A2558"/>
<path d="M123.275 20.7518C123.062 20.0988 122.622 18.8728 122.422 18.3538C122.369 18.2198 122.289 18.2198 122.262 18.2998C122.169 18.5538 121.582 20.1258 121.463 20.7658C121.449 20.8318 121.463 20.9118 121.529 20.9258C121.916 20.9258 123.115 20.9388 123.248 20.9258C123.275 20.9118 123.315 20.8458 123.275 20.7518ZM123.515 16.3948C123.541 16.5278 123.595 16.6478 123.662 16.8478C124.554 19.4198 125.78 22.3248 126.033 23.0178C126.54 24.1498 126.687 24.2968 127.273 24.4838C127.486 24.5108 127.593 24.6168 127.593 24.6698C127.593 24.7368 127.526 24.8568 127.259 24.8568C126.913 24.8568 125.407 24.7768 125.114 24.7768C124.701 24.7768 124.248 24.8298 123.875 24.8298C123.635 24.8298 123.528 24.7368 123.528 24.6838C123.528 24.5768 123.621 24.5228 123.795 24.4698C124.367 24.2838 124.381 24.1498 124.381 23.9108C124.381 23.7368 123.795 22.2048 123.675 21.8178C123.621 21.7258 123.555 21.5648 123.448 21.5648C123.142 21.5388 122.035 21.5388 121.289 21.5648C121.263 21.5648 121.156 21.6848 121.116 21.8048C120.903 22.3648 120.556 23.5508 120.556 23.8168C120.556 24.1238 120.73 24.3238 121.303 24.5108C121.582 24.5898 121.623 24.6298 121.623 24.7098C121.636 24.7768 121.529 24.8428 121.343 24.8428C120.81 24.8428 120.477 24.7768 119.97 24.7768C119.53 24.7768 119.157 24.8428 118.811 24.8428C118.664 24.8428 118.518 24.8158 118.504 24.6968C118.504 24.6038 118.611 24.5638 118.784 24.5228C119.49 24.3368 119.677 24.0578 120.064 23.2048C120.437 22.3778 121.889 18.1928 122.289 16.9808C122.329 16.8748 122.369 16.6748 122.369 16.5948C122.369 16.5278 122.382 16.5548 122.382 16.4608C122.382 16.3818 122.488 16.2878 122.542 16.2748C122.649 16.2348 123.275 16.2218 123.395 16.2608C123.435 16.2748 123.502 16.3408 123.515 16.3948Z" fill="#2A2558"/>
<path d="M133.075 16.3412C133.128 16.4742 133.208 16.7552 133.342 17.0882C134.248 19.4062 134.94 21.3122 135.713 23.0582C136.127 24.0042 136.326 24.3232 136.953 24.4842C137.126 24.5232 137.26 24.5772 137.26 24.7232C137.26 24.7232 137.192 24.8572 136.913 24.8572C136.593 24.8572 135.527 24.7772 134.981 24.7772C134.18 24.7772 133.887 24.8302 133.448 24.8302C133.235 24.8302 133.128 24.7232 133.128 24.6702C133.128 24.6162 133.235 24.4972 133.381 24.4572C133.901 24.3232 134.008 24.1502 134.008 23.9502C133.994 23.6842 132.209 18.8062 132.035 18.4872C131.996 18.4072 131.902 18.4462 131.875 18.5132C131.329 19.9792 130.756 21.7922 130.436 22.8582C130.276 23.3102 130.21 23.6712 130.21 23.8172C130.21 24.1632 130.583 24.3372 130.929 24.4432C131.156 24.5102 131.236 24.5642 131.236 24.6832C131.236 24.7902 131.036 24.8302 130.889 24.8302C130.649 24.8302 129.996 24.7772 129.477 24.7772C128.944 24.7772 128.597 24.8162 128.385 24.8162C128.237 24.8162 128.117 24.7102 128.117 24.6432C128.117 24.6032 128.237 24.4842 128.385 24.4572C129.104 24.3232 129.317 24.0042 129.677 23.2172C129.943 22.6572 131.396 18.6202 131.769 17.5542C131.796 17.4612 131.848 17.2882 131.848 17.2082C131.848 17.1402 131.875 17.0482 131.942 17.0082C132.235 16.7672 132.502 16.4212 132.608 16.2612C132.676 16.1682 132.782 16.0882 132.835 16.0882C132.928 16.0882 132.981 16.1142 133.075 16.3412Z" fill="#2A2558"/>
<path d="M142.914 20.8724C142.621 20.5124 142.207 20.3124 141.701 20.3124C141.528 20.3124 141.315 20.3524 141.262 20.4054C141.195 20.4854 141.182 20.6454 141.182 20.8314C141.182 21.1124 141.195 23.2314 141.235 23.5374C141.248 23.6704 141.289 23.9504 141.342 24.0174C141.488 24.2044 141.808 24.4434 141.995 24.4434C142.288 24.4434 142.754 24.2434 142.994 23.9234C143.234 23.6044 143.381 23.0444 143.381 22.4844C143.381 21.8044 143.207 21.2454 142.914 20.8724ZM144.234 24.2164C143.633 24.6434 142.408 24.8164 141.955 24.8164C141.581 24.8164 140.302 24.8034 139.689 24.7894C139.129 24.7764 138.676 24.8164 138.45 24.8164C138.264 24.8164 138.143 24.7234 138.143 24.6574C138.143 24.5374 138.289 24.4974 138.423 24.4704C139.143 24.2964 139.303 24.2704 139.369 23.7634C139.41 23.4704 139.436 21.8044 139.436 20.0054C139.436 19.4994 139.436 17.4874 139.369 17.2204C139.343 17.0744 139.33 16.8884 138.717 16.7144C138.53 16.6744 138.396 16.6214 138.396 16.5014C138.396 16.4354 138.557 16.3544 138.676 16.3544C138.717 16.3544 140.116 16.3944 140.156 16.3944C140.809 16.4214 141.328 16.3544 141.822 16.3544C142.021 16.3544 142.154 16.3944 142.154 16.5144C142.154 16.7014 141.834 16.7274 141.795 16.7274C141.275 16.8474 141.248 17.0074 141.208 17.3804C141.168 17.6734 141.182 18.7534 141.182 19.8194C141.182 19.8724 141.208 19.9524 141.262 19.9524C141.461 19.9394 141.928 19.8994 142.394 19.8994C144.234 19.8994 145.313 20.6594 145.313 22.2454C145.313 23.2044 144.86 23.7634 144.234 24.2164Z" fill="#2A2558"/>
<path d="M147.05 16.3412C147.396 16.3412 148.369 16.3942 148.729 16.3942C149.342 16.3942 149.928 16.3552 150.221 16.3552C150.381 16.3552 150.581 16.3942 150.581 16.5012C150.581 16.6082 150.488 16.6612 150.235 16.7142C149.715 16.8212 149.701 17.0342 149.662 17.6472C149.648 18.1002 149.609 19.4202 149.648 19.8332C149.662 20.0322 149.675 20.1392 149.755 20.1522C150.447 20.1662 153.113 20.1392 153.379 20.1262C153.513 20.1122 153.579 20.0862 153.579 19.9932C153.579 18.9262 153.593 18.2732 153.552 17.5272C153.513 17.0482 153.486 16.8212 152.9 16.6742C152.779 16.6482 152.553 16.6082 152.553 16.4742C152.553 16.3552 152.753 16.3282 152.9 16.3282C153.033 16.3282 154.139 16.3942 154.486 16.3942C154.925 16.3942 155.911 16.3412 156.005 16.3412C156.324 16.3412 156.404 16.4212 156.404 16.5012C156.404 16.5812 156.298 16.6482 156.098 16.7012C155.511 16.8472 155.418 16.9142 155.392 17.4342C155.352 18.3272 155.338 19.2202 155.338 20.8192C155.338 21.9252 155.325 22.9912 155.392 23.6172C155.458 24.1502 155.565 24.3372 156.111 24.4702C156.338 24.5502 156.418 24.6032 156.418 24.6702C156.418 24.7902 156.298 24.8432 156.098 24.8432C155.884 24.8432 154.699 24.7772 154.326 24.7772C154.059 24.7772 153.126 24.8032 152.886 24.8032C152.753 24.8032 152.54 24.7502 152.54 24.6572C152.54 24.5502 152.687 24.4972 152.847 24.4702C153.433 24.3102 153.513 24.2162 153.566 23.1512C153.579 22.6572 153.593 21.6582 153.566 21.1122C153.539 20.7782 153.473 20.7652 153.366 20.7652C153.06 20.7652 149.902 20.7652 149.755 20.7782C149.701 20.7922 149.662 20.9662 149.648 21.0722C149.609 21.3922 149.609 22.7242 149.688 23.5372C149.728 24.1242 149.808 24.2842 150.408 24.4432C150.674 24.4972 150.74 24.5772 150.74 24.6572C150.74 24.7232 150.674 24.8162 150.408 24.8162C150.328 24.8162 149.222 24.7772 148.769 24.7772C148.462 24.7772 147.543 24.8572 147.076 24.8572C146.89 24.8572 146.717 24.8162 146.717 24.6832C146.717 24.5772 146.903 24.5102 147.009 24.4972C147.65 24.3772 147.742 24.2162 147.782 23.4042C147.809 22.9512 147.822 21.9782 147.822 20.4322C147.822 19.1672 147.822 18.1532 147.769 17.4742C147.73 17.0082 147.65 16.8352 147.129 16.7012C146.823 16.6342 146.743 16.5682 146.743 16.4742C146.743 16.4212 146.863 16.3412 147.05 16.3412Z" fill="#2A2558"/>
<path d="M162.208 20.7518C161.995 20.0988 161.555 18.8728 161.355 18.3538C161.302 18.2198 161.222 18.2198 161.195 18.2998C161.102 18.5538 160.516 20.1258 160.396 20.7658C160.383 20.8318 160.396 20.9118 160.463 20.9258C160.849 20.9258 162.048 20.9388 162.182 20.9258C162.208 20.9118 162.248 20.8458 162.208 20.7518ZM162.448 16.3948C162.475 16.5278 162.528 16.6478 162.595 16.8478C163.487 19.4198 164.713 22.3248 164.967 23.0178C165.473 24.1498 165.62 24.2968 166.206 24.4838C166.419 24.5108 166.526 24.6168 166.526 24.6698C166.526 24.7368 166.459 24.8568 166.192 24.8568C165.846 24.8568 164.34 24.7768 164.047 24.7768C163.634 24.7768 163.181 24.8298 162.808 24.8298C162.568 24.8298 162.461 24.7368 162.461 24.6838C162.461 24.5768 162.555 24.5228 162.728 24.4698C163.301 24.2838 163.314 24.1498 163.314 23.9108C163.314 23.7368 162.728 22.2048 162.608 21.8178C162.555 21.7258 162.488 21.5648 162.381 21.5648C162.075 21.5388 160.969 21.5388 160.223 21.5648C160.196 21.5648 160.09 21.6848 160.049 21.8048C159.836 22.3648 159.489 23.5508 159.489 23.8168C159.489 24.1238 159.663 24.3238 160.236 24.5108C160.516 24.5898 160.556 24.6298 160.556 24.7098C160.569 24.7768 160.463 24.8428 160.276 24.8428C159.743 24.8428 159.41 24.7768 158.903 24.7768C158.463 24.7768 158.09 24.8428 157.744 24.8428C157.598 24.8428 157.451 24.8158 157.437 24.6968C157.437 24.6038 157.544 24.5638 157.717 24.5228C158.424 24.3368 158.61 24.0578 158.997 23.2048C159.37 22.3778 160.822 18.1928 161.222 16.9808C161.262 16.8748 161.302 16.6748 161.302 16.5948C161.302 16.5278 161.315 16.5548 161.315 16.4608C161.315 16.3818 161.422 16.2878 161.475 16.2748C161.582 16.2348 162.208 16.2218 162.328 16.2608C162.368 16.2748 162.435 16.3408 162.448 16.3948Z" fill="#2A2558"/>
<path d="M175.234 20.7518C175.021 20.0988 174.581 18.8728 174.381 18.3538C174.328 18.2198 174.248 18.2198 174.221 18.2998C174.128 18.5538 173.542 20.1258 173.422 20.7658C173.408 20.8318 173.422 20.9118 173.488 20.9258C173.875 20.9258 175.074 20.9388 175.207 20.9258C175.234 20.9118 175.274 20.8458 175.234 20.7518ZM175.474 16.3948C175.5 16.5278 175.554 16.6478 175.621 16.8478C176.513 19.4198 177.739 22.3248 177.992 23.0178C178.499 24.1498 178.646 24.2968 179.232 24.4838C179.445 24.5108 179.552 24.6168 179.552 24.6698C179.552 24.7368 179.485 24.8568 179.218 24.8568C178.872 24.8568 177.366 24.7768 177.073 24.7768C176.66 24.7768 176.207 24.8298 175.834 24.8298C175.594 24.8298 175.487 24.7368 175.487 24.6838C175.487 24.5768 175.58 24.5228 175.754 24.4698C176.326 24.2838 176.34 24.1498 176.34 23.9108C176.34 23.7368 175.754 22.2048 175.634 21.8178C175.58 21.7258 175.514 21.5648 175.407 21.5648C175.101 21.5388 173.994 21.5388 173.248 21.5648C173.222 21.5648 173.115 21.6848 173.075 21.8048C172.862 22.3648 172.515 23.5508 172.515 23.8168C172.515 24.1238 172.689 24.3238 173.262 24.5108C173.542 24.5898 173.582 24.6298 173.582 24.7098C173.595 24.7768 173.488 24.8428 173.302 24.8428C172.769 24.8428 172.436 24.7768 171.929 24.7768C171.489 24.7768 171.116 24.8428 170.77 24.8428C170.623 24.8428 170.477 24.8158 170.463 24.6968C170.463 24.6038 170.57 24.5638 170.743 24.5228C171.449 24.3368 171.636 24.0578 172.023 23.2048C172.396 22.3778 173.848 18.1928 174.248 16.9808C174.288 16.8748 174.328 16.6748 174.328 16.5948C174.328 16.5278 174.341 16.5548 174.341 16.4608C174.341 16.3818 174.447 16.2878 174.501 16.2748C174.608 16.2348 175.234 16.2218 175.354 16.2608C175.394 16.2748 175.461 16.3408 175.474 16.3948Z" fill="#2A2558"/>
<path d="M187.112 16.3411C187.392 16.3941 187.752 16.4741 188.086 16.4741C188.125 16.4871 188.218 16.6211 188.245 16.6741C188.258 16.9011 188.379 18.1001 188.379 18.1141C188.405 18.5671 188.285 18.6201 188.192 18.6201C188.098 18.6201 188.045 18.4871 187.979 18.2601C187.885 17.8471 187.686 17.5271 187.272 17.1811C186.739 16.7671 185.953 16.5141 185.34 16.5141C183.475 16.5141 182.542 18.0201 182.542 20.1121C182.542 21.0051 182.742 21.9911 183.061 22.6181C183.781 24.0841 184.914 24.5901 185.886 24.5901C186.393 24.5901 186.766 24.4571 187.072 24.2431C187.526 23.9501 187.819 23.4581 188.018 23.0971C188.045 23.0711 188.192 22.6571 188.339 22.6571C188.471 22.6571 188.498 22.9371 188.471 23.0441C188.445 23.1771 188.325 23.9771 188.299 24.2841C188.299 24.3771 188.045 24.5901 187.845 24.6571C187.792 24.6831 186.766 25.0161 185.5 25.0161C183.634 25.0161 182.301 24.4041 181.543 23.5501C181.049 22.9911 180.436 22.1111 180.436 20.5251C180.436 18.7401 181.383 17.7271 181.769 17.3941C182.862 16.4081 184.26 16.1551 185.406 16.1551C186.033 16.1551 186.673 16.2611 187.112 16.3411Z" fill="#2A2558"/>
<path d="M193.541 17.1405C193.088 17.5805 192.595 18.4605 192.595 20.3395C192.595 21.4185 192.968 22.6045 193.594 23.4315C194.141 24.1365 194.861 24.5895 195.646 24.5895C196.113 24.5895 196.58 24.3235 196.806 24.0975C197.393 23.5365 197.739 22.3115 197.739 20.8585C197.739 19.9525 197.326 16.5545 194.847 16.5545C194.301 16.5545 193.728 16.9545 193.541 17.1405ZM199.791 20.5655C199.791 22.0055 199.138 23.1635 198.258 23.9505C197.579 24.5365 196.553 25.0165 195.247 25.0165C192.688 25.0165 190.596 23.2045 190.596 20.5255C190.596 18.9135 191.182 18.0205 192.076 17.2205C192.635 16.7545 193.768 16.1555 195.154 16.1555C198.551 16.1555 199.791 18.7935 199.791 20.5655Z" fill="#2A2558"/>
<path d="M201.93 16.3549C202.33 16.3549 203.235 16.3949 203.569 16.3949C204.168 16.3949 204.782 16.3549 205.115 16.3549C205.288 16.3549 205.434 16.4609 205.434 16.5009C205.434 16.5949 205.354 16.7009 205.088 16.7549C204.568 16.8749 204.502 17.0079 204.475 17.5669C204.475 17.7669 204.462 19.2069 204.462 20.5789C204.475 21.9249 204.489 23.6049 204.528 24.0309C204.541 24.1639 204.662 24.2969 204.755 24.2969C205.847 24.2839 206.927 24.2709 208.033 24.2569C208.113 24.2569 208.193 24.1499 208.193 24.0839C208.233 23.2979 208.233 18.5669 208.233 17.5939C208.22 17.1009 208.18 16.8879 207.66 16.7279C207.513 16.6879 207.313 16.6209 207.313 16.5009C207.313 16.4609 207.487 16.3549 207.594 16.3549C207.806 16.3549 208.859 16.3949 209.18 16.3949C209.645 16.3949 210.645 16.3549 210.738 16.3549C210.991 16.3549 211.085 16.4209 211.085 16.4879C211.085 16.5679 211.058 16.6619 210.725 16.7549C210.245 16.8749 210.112 17.0349 210.098 17.5409C210.112 17.1279 210.032 20.8859 210.006 22.8049C210.006 23.3509 210.018 23.7639 210.018 23.8709C210.018 24.0309 210.098 24.2839 210.245 24.2839L211.032 24.3369C211.098 24.3369 211.138 24.4569 211.098 24.5769C210.978 24.9369 210.698 25.8689 210.632 26.4959C210.618 26.7219 210.512 26.9489 210.379 26.9489C210.232 26.9489 210.192 26.7889 210.219 26.4819C210.232 26.2829 210.232 25.9629 210.232 25.8159C210.232 24.8039 209.912 24.7769 209.259 24.7769H203.422C203.129 24.7769 202.383 24.8569 201.877 24.8569C201.583 24.8569 201.504 24.7369 201.504 24.7099C201.504 24.6039 201.69 24.4839 201.836 24.4569C202.503 24.3239 202.569 24.2039 202.623 23.4039C202.649 22.8979 202.676 22.0719 202.676 20.2459C202.676 18.7799 202.662 18.1009 202.623 17.5009C202.596 17.0079 202.356 16.9009 201.889 16.7549C201.61 16.6479 201.597 16.5409 201.597 16.5009C201.597 16.4209 201.77 16.3549 201.93 16.3549Z" fill="#2A2558"/>
<path d="M213.543 17.7411C213.489 17.0341 213.489 16.8611 212.876 16.7011C212.61 16.6351 212.543 16.5411 212.543 16.4741C212.543 16.4211 212.649 16.3411 212.85 16.3411C213.17 16.3411 214.049 16.3941 214.502 16.3941C215.182 16.3941 215.608 16.3411 216.061 16.3411C216.194 16.3411 216.408 16.3821 216.408 16.4881C216.408 16.5951 216.288 16.6481 216.088 16.7011C215.635 16.8081 215.488 16.8741 215.448 17.5671C215.395 18.1141 215.382 18.8331 215.382 19.7661C215.382 21.9111 215.409 22.8981 215.435 23.2311C215.502 24.1111 215.568 24.2841 216.262 24.4571C216.408 24.4971 216.528 24.5501 216.528 24.6701C216.528 24.7771 216.381 24.8301 216.194 24.8301C215.688 24.8301 214.756 24.7771 214.516 24.7771C214.129 24.7771 213.303 24.8301 212.783 24.8301C212.637 24.8301 212.463 24.7901 212.463 24.6431C212.463 24.5771 212.597 24.4971 212.77 24.4571C213.489 24.2431 213.529 24.1631 213.556 23.2981C213.569 22.7641 213.569 21.1521 213.569 20.2461C213.569 19.3001 213.583 18.1801 213.543 17.7411Z" fill="#2A2558"/>
<path d="M222.233 20.7518C222.02 20.0988 221.58 18.8728 221.38 18.3538C221.327 18.2198 221.247 18.2198 221.22 18.2998C221.127 18.5538 220.541 20.1258 220.421 20.7658C220.408 20.8318 220.421 20.9118 220.488 20.9258C220.874 20.9258 222.073 20.9388 222.207 20.9258C222.233 20.9118 222.273 20.8458 222.233 20.7518ZM222.473 16.3948C222.5 16.5278 222.553 16.6478 222.62 16.8478C223.512 19.4198 224.738 22.3248 224.992 23.0178C225.498 24.1498 225.645 24.2968 226.231 24.4838C226.444 24.5108 226.551 24.6168 226.551 24.6698C226.551 24.7368 226.484 24.8568 226.217 24.8568C225.871 24.8568 224.365 24.7768 224.072 24.7768C223.659 24.7768 223.206 24.8298 222.833 24.8298C222.593 24.8298 222.486 24.7368 222.486 24.6838C222.486 24.5768 222.58 24.5228 222.753 24.4698C223.326 24.2838 223.339 24.1498 223.339 23.9108C223.339 23.7368 222.753 22.2048 222.633 21.8178C222.58 21.7258 222.513 21.5648 222.406 21.5648C222.1 21.5388 220.994 21.5388 220.248 21.5648C220.221 21.5648 220.114 21.6848 220.074 21.8048C219.861 22.3648 219.514 23.5508 219.514 23.8168C219.514 24.1238 219.688 24.3238 220.261 24.5108C220.541 24.5898 220.581 24.6298 220.581 24.7098C220.594 24.7768 220.488 24.8428 220.301 24.8428C219.768 24.8428 219.435 24.7768 218.928 24.7768C218.488 24.7768 218.115 24.8428 217.769 24.8428C217.623 24.8428 217.476 24.8158 217.462 24.6968C217.462 24.6038 217.569 24.5638 217.742 24.5228C218.449 24.3368 218.635 24.0578 219.022 23.2048C219.395 22.3778 220.847 18.1928 221.247 16.9808C221.287 16.8748 221.327 16.6748 221.327 16.5948C221.327 16.5278 221.34 16.5548 221.34 16.4608C221.34 16.3818 221.447 16.2878 221.5 16.2748C221.607 16.2348 222.233 16.2218 222.353 16.2608C222.393 16.2748 222.46 16.3408 222.473 16.3948Z" fill="#2A2558"/>
<path d="M227.996 16.3549C228.395 16.3549 229.302 16.3949 229.635 16.3949C230.234 16.3949 230.848 16.3549 231.181 16.3549C231.354 16.3549 231.5 16.4609 231.5 16.5009C231.5 16.5949 231.42 16.7009 231.154 16.7549C230.634 16.8749 230.567 17.0079 230.541 17.5669C230.541 17.7669 230.528 19.2069 230.528 20.5789C230.541 21.9249 230.555 23.6049 230.594 24.0309C230.607 24.1639 230.727 24.2969 230.821 24.2969C231.913 24.2839 232.993 24.2709 234.099 24.2569C234.179 24.2569 234.259 24.1499 234.259 24.0839C234.299 23.2979 234.299 18.5669 234.299 17.5939C234.286 17.1009 234.245 16.8879 233.725 16.7279C233.579 16.6879 233.379 16.6209 233.379 16.5009C233.379 16.4609 233.553 16.3549 233.659 16.3549C233.872 16.3549 234.925 16.3949 235.245 16.3949C235.711 16.3949 236.711 16.3549 236.804 16.3549C237.057 16.3549 237.151 16.4209 237.151 16.4879C237.151 16.5679 237.124 16.6619 236.791 16.7549C236.311 16.8749 236.178 17.0349 236.164 17.5409C236.178 17.1279 236.098 20.8859 236.071 22.8049C236.071 23.3509 236.084 23.7639 236.084 23.8709C236.084 24.0309 236.164 24.2839 236.311 24.2839L237.098 24.3369C237.164 24.3369 237.204 24.4569 237.164 24.5769C237.044 24.9369 236.764 25.8689 236.698 26.4959C236.684 26.7219 236.577 26.9489 236.444 26.9489C236.298 26.9489 236.258 26.7889 236.284 26.4819C236.298 26.2829 236.298 25.9629 236.298 25.8159C236.298 24.8039 235.977 24.7769 235.325 24.7769H229.488C229.195 24.7769 228.449 24.8569 227.942 24.8569C227.649 24.8569 227.569 24.7369 227.569 24.7099C227.569 24.6039 227.756 24.4839 227.902 24.4569C228.569 24.3239 228.635 24.2039 228.688 23.4039C228.715 22.8979 228.742 22.0719 228.742 20.2459C228.742 18.7799 228.728 18.1009 228.688 17.5009C228.662 17.0079 228.422 16.9009 227.955 16.7549C227.676 16.6479 227.663 16.5409 227.663 16.5009C227.663 16.4209 227.836 16.3549 227.996 16.3549Z" fill="#2A2558"/>
<path d="M239.608 17.7411C239.555 17.0341 239.555 16.8611 238.941 16.7011C238.675 16.6351 238.609 16.5411 238.609 16.4741C238.609 16.4211 238.715 16.3411 238.915 16.3411C239.235 16.3411 240.115 16.3941 240.568 16.3941C241.248 16.3941 241.674 16.3411 242.127 16.3411C242.26 16.3411 242.473 16.3821 242.473 16.4881C242.473 16.5951 242.353 16.6481 242.153 16.7011C241.7 16.8081 241.553 16.8741 241.514 17.5671C241.461 18.1141 241.447 18.8331 241.447 19.7661C241.447 21.9111 241.473 22.8981 241.5 23.2311C241.567 24.1111 241.633 24.2841 242.326 24.4571C242.473 24.4971 242.593 24.5501 242.593 24.6701C242.593 24.7771 242.447 24.8301 242.26 24.8301C241.754 24.8301 240.821 24.7771 240.581 24.7771C240.195 24.7771 239.368 24.8301 238.848 24.8301C238.702 24.8301 238.529 24.7901 238.529 24.6431C238.529 24.5771 238.662 24.4971 238.836 24.4571C239.555 24.2431 239.594 24.1631 239.621 23.2981C239.635 22.7641 239.635 21.1521 239.635 20.2461C239.635 19.3001 239.648 18.1801 239.608 17.7411Z" fill="#2A2558"/>
<path d="M248.965 16.741C248.898 16.714 248.725 16.661 248.605 16.661C247.819 16.661 247.033 17.114 247.033 18.353C247.033 19.872 248.059 20.419 248.792 20.419C248.859 20.419 248.965 20.419 249.005 20.406C249.031 20.392 249.072 20.325 249.072 20.206V17.181C249.072 16.941 249.019 16.755 248.965 16.741ZM249.871 24.777C249.365 24.777 248.472 24.816 248.325 24.816C248.099 24.816 247.992 24.683 247.992 24.657C247.992 24.63 248.086 24.497 248.298 24.43C248.939 24.257 249.031 24.084 249.045 23.47C249.058 22.724 249.111 21.472 249.072 20.926C249.072 20.805 248.992 20.765 248.965 20.765C248.805 20.765 248.525 20.966 248.059 21.658C247.486 22.498 246.953 23.444 246.5 24.044C245.98 24.683 245.527 24.896 244.634 24.896C244.487 24.896 243.875 24.91 243.568 24.857C243.368 24.816 243.248 24.79 243.248 24.67C243.248 24.564 243.422 24.484 243.541 24.47C244.275 24.324 244.634 24.044 245.567 22.591C246.34 21.392 246.886 20.899 247.153 20.712C247.286 20.619 247.219 20.579 247.126 20.552C246.393 20.352 245.234 19.913 245.234 18.46C245.234 17.927 245.486 17.354 245.886 16.994C246.353 16.608 246.992 16.302 248.619 16.302C249.258 16.302 250.098 16.368 250.604 16.368H251.59C251.87 16.368 251.91 16.461 251.91 16.514C251.91 16.621 251.777 16.728 251.55 16.781C251.124 16.861 250.898 17.021 250.871 17.22C250.818 17.754 250.83 18.74 250.83 20.472C250.83 21.552 250.818 22.818 250.871 23.524C250.91 24.097 251.057 24.27 251.656 24.43C251.777 24.47 251.91 24.523 251.91 24.603C251.91 24.763 251.71 24.816 251.577 24.816C251.43 24.816 250.471 24.777 249.871 24.777Z" fill="#2A2558"/>
<path d="M64.859 36.8749C64.582 36.0259 64.01 34.4309 63.75 33.7549C63.68 33.5819 63.576 33.5819 63.542 33.6859C63.42 34.0149 62.658 36.0609 62.502 36.8929C62.484 36.9789 62.502 37.0829 62.588 37.1009C63.091 37.1009 64.651 37.1179 64.824 37.1009C64.859 37.0829 64.911 36.9969 64.859 36.8749ZM65.171 31.2069C65.206 31.3799 65.275 31.5369 65.361 31.7959C66.523 35.1419 68.118 38.9209 68.447 39.8219C69.106 41.2959 69.296 41.4859 70.059 41.7289C70.337 41.7629 70.475 41.9019 70.475 41.9719C70.475 42.0579 70.389 42.2139 70.042 42.2139C69.591 42.2139 67.632 42.1099 67.252 42.1099C66.713 42.1099 66.125 42.1799 65.639 42.1799C65.327 42.1799 65.188 42.0579 65.188 41.9889C65.188 41.8509 65.31 41.7809 65.535 41.7119C66.281 41.4689 66.297 41.2959 66.297 40.9829C66.297 40.7579 65.535 38.7649 65.379 38.2619C65.31 38.1409 65.223 37.9329 65.084 37.9329C64.686 37.8979 63.247 37.8979 62.276 37.9329C62.242 37.9329 62.103 38.0889 62.051 38.2449C61.774 38.9729 61.323 40.5159 61.323 40.8619C61.323 41.2609 61.548 41.5209 62.294 41.7629C62.658 41.8669 62.71 41.9189 62.71 42.0229C62.727 42.1099 62.588 42.1969 62.346 42.1969C61.652 42.1969 61.219 42.1099 60.56 42.1099C59.988 42.1099 59.503 42.1969 59.052 42.1969C58.861 42.1969 58.671 42.1619 58.654 42.0059C58.654 41.8849 58.793 41.8329 59.018 41.7809C59.936 41.5379 60.179 41.1739 60.682 40.0639C61.167 38.9899 63.056 33.5469 63.576 31.9699C63.629 31.8309 63.68 31.5709 63.68 31.4669C63.68 31.3799 63.697 31.4149 63.697 31.2939C63.697 31.1889 63.837 31.0679 63.906 31.0509C64.045 30.9989 64.859 30.9819 65.015 31.0339C65.067 31.0509 65.154 31.1379 65.171 31.2069Z" fill="#2A2558"/>
<path d="M78.9336 41.3123C78.8636 40.8793 76.9576 34.5003 76.6806 34.0493C76.6286 33.9623 76.5766 33.9803 76.5406 34.0673C76.0036 35.7313 74.4966 40.4283 74.2186 41.3123C74.2016 41.3473 74.2356 41.4853 74.3226 41.4853H78.7596C78.8636 41.4853 78.9506 41.4163 78.9336 41.3123ZM73.4036 42.3353C72.9706 42.7693 72.8666 43.4103 72.8316 44.2423C72.8146 44.6753 72.7626 44.8833 72.5896 44.8833C72.3986 44.8833 72.3116 44.4853 72.2946 44.3113C72.2076 43.5483 72.2256 42.4913 72.1556 41.9543C72.1556 41.7803 72.2076 41.5383 72.3116 41.5383L73.1266 41.4683C73.2476 41.4683 73.3866 41.2953 73.4216 41.2083C73.9416 40.0993 75.5186 35.2973 76.4896 32.6283C76.5236 32.5413 76.5586 32.3683 76.5766 32.2643C76.5936 32.1953 76.6446 32.0213 76.6806 31.9693C77.0446 31.6403 77.5636 31.2413 77.7206 31.0503C77.8066 30.9463 77.9106 30.9293 77.9626 30.9293C77.9976 30.9293 78.1016 30.9993 78.1186 31.0343C78.1876 31.1203 78.2406 31.3633 78.4656 32.0043C79.3496 34.5523 80.5276 38.6253 81.4466 40.9313C81.4986 41.0703 81.6726 41.4683 81.8456 41.4683L82.7816 41.5383C82.9026 41.5383 82.8856 41.6943 82.8686 41.7803C82.8166 42.1793 82.3826 43.3063 82.2966 44.2083C82.2786 44.5193 82.1056 44.8133 81.9496 44.8133C81.8106 44.8133 81.7416 44.6063 81.7756 44.1903C81.7936 43.9473 81.8106 43.8263 81.8106 43.6183C81.8106 42.3173 81.4816 42.1103 80.8226 42.1103H74.2186C73.9936 42.1103 73.5946 42.1443 73.4036 42.3353Z" fill="#2A2558"/>
<path d="M89.0035 36.3724C88.8135 36.3724 88.6055 36.3904 88.4835 36.4424C88.4485 36.4584 88.3795 36.6494 88.3795 36.8404C88.3615 37.4134 88.4145 39.9434 88.4665 40.3594C88.5005 40.6714 88.5185 40.9834 88.7435 41.2264C89.0725 41.5384 89.5935 41.7284 89.7835 41.7284C90.6325 41.7284 91.6385 40.5844 91.6385 39.1984C91.6385 37.5344 90.4415 36.3724 89.0035 36.3724ZM89.0215 31.5184C88.8825 31.5184 88.7095 31.5534 88.5875 31.6224C88.4665 31.6924 88.4315 31.7964 88.4145 31.9694C88.3965 32.4204 88.3455 35.3494 88.3795 35.7834C88.3795 35.8174 88.4835 35.9214 88.8305 35.9214C89.4715 35.9214 90.0785 35.6964 90.3375 35.4884C90.8925 35.0894 91.1015 34.3094 91.1015 33.8244C91.1015 32.2824 90.0605 31.5184 89.0215 31.5184ZM92.9905 41.2784C92.1755 41.9364 90.6325 42.1794 89.5235 42.1794C89.0035 42.1794 87.6345 42.1624 86.8545 42.1274C86.2125 42.1104 85.2595 42.1794 84.9995 42.1794C84.7565 42.1794 84.5135 42.1274 84.5135 41.9714C84.5135 41.8844 84.6525 41.7804 84.8605 41.7464C85.9525 41.5384 85.9005 41.2084 85.9705 40.6364C86.0225 40.3074 86.0745 37.6554 86.0745 35.7834C86.0745 33.7034 86.0225 32.9234 85.9875 32.5764C85.9355 31.8304 85.6755 31.6754 84.8435 31.5714C84.6355 31.5534 84.4275 31.4844 84.4275 31.3284C84.4275 31.2064 84.7395 31.1554 84.8605 31.1554H86.2475C87.0975 31.1554 88.6915 31.0344 89.3325 31.0344C90.4945 31.0344 91.3265 31.1724 92.0895 31.5364C92.8865 31.9004 93.4065 32.7844 93.4065 33.6164C93.4065 34.7784 92.8695 35.3674 91.8985 35.8704C91.7765 35.9214 91.8465 35.9914 91.9505 36.0084C93.6145 36.6324 94.1865 37.6724 94.1865 38.9554C94.1865 39.8564 93.6495 40.7054 92.9905 41.2784Z" fill="#2A2558"/>
<path d="M100.27 32.1776C99.6801 32.7496 99.0391 33.8936 99.0391 36.3376C99.0391 37.7416 99.5251 39.2846 100.339 40.3596C101.05 41.2786 101.986 41.8666 103.008 41.8666C103.615 41.8666 104.222 41.5206 104.517 41.2256C105.279 40.4976 105.73 38.9036 105.73 37.0136C105.73 35.8356 105.193 31.4146 101.969 31.4146C101.258 31.4146 100.512 31.9346 100.27 32.1776ZM108.4 36.6326C108.4 38.5046 107.55 40.0126 106.406 41.0346C105.522 41.7986 104.187 42.4216 102.489 42.4216C99.1611 42.4216 96.4391 40.0646 96.4391 36.5806C96.4391 34.4836 97.2021 33.3216 98.3631 32.2816C99.0911 31.6756 100.564 30.8956 102.367 30.8956C106.788 30.8956 108.4 34.3266 108.4 36.6326Z" fill="#2A2558"/>
<path d="M110.86 31.1376C111.258 31.1376 112.247 31.2066 112.819 31.2066C113.339 31.2066 114.674 31.1376 115.02 31.1376C115.402 31.1376 115.402 31.3116 115.402 31.3276C115.402 31.5016 115.125 31.5716 115.072 31.5886C114.293 31.7786 114.223 31.8136 114.136 32.8536C114.067 33.6856 114.084 35.3666 114.084 36.0956C114.084 36.1996 114.119 36.3376 114.206 36.3206C114.968 36.2516 115.402 36.1126 116.095 35.2286C116.494 34.7086 116.789 34.1716 117.412 33.1656C118.557 31.3116 119.25 30.9466 120.117 30.9466C120.549 30.9466 120.965 31.1896 120.965 31.5886C120.965 31.8136 120.74 32.2296 120.585 32.3166C120.463 32.3856 120.272 32.4036 120.186 32.3856C120.03 32.3686 119.666 32.2466 119.475 32.2466C118.713 32.2466 118.401 32.4546 117.603 33.7026C117.256 34.2746 116.84 34.8816 116.58 35.2806C116.563 35.2976 116.58 35.4196 116.598 35.4536C116.771 35.9046 118.522 38.8166 119.545 40.1166C120.758 41.6596 121.122 41.7286 121.954 41.8506C122.11 41.8666 122.249 41.9366 122.249 42.0406C122.249 42.1446 122.127 42.2316 121.902 42.2836C121.746 42.3176 121.555 42.3356 121.122 42.3356C118.401 42.3356 118.192 42.0756 117.1 40.6536C116.667 40.0986 115.696 38.4526 115.436 38.0546C114.639 36.8236 114.414 36.6846 114.188 36.6846C114.136 36.6846 114.084 36.7536 114.084 36.8926C114.084 38.8336 114.067 39.8216 114.154 40.6536C114.223 41.2436 114.448 41.5206 115.141 41.6766C115.471 41.7286 115.541 41.9026 115.541 41.9196C115.541 42.0406 115.35 42.1616 115.107 42.1616C114.777 42.1616 112.992 42.1106 112.472 42.1106C111.969 42.1106 111.207 42.1796 110.67 42.1796C110.565 42.1796 110.236 42.1106 110.236 41.9716C110.236 41.8326 110.392 41.7456 110.67 41.6946C111.553 41.4856 111.692 41.3996 111.727 40.1166C111.761 39.0076 111.797 37.8456 111.797 36.1996C111.797 35.2976 111.813 34.0676 111.761 33.0616C111.692 32.0556 111.658 31.7616 110.947 31.6226C110.548 31.5366 110.462 31.4496 110.462 31.3456C110.462 31.1726 110.739 31.1376 110.86 31.1376Z" fill="#2A2558"/>
<path d="M129.233 36.8749C128.956 36.0259 128.384 34.4309 128.124 33.7549C128.055 33.5819 127.951 33.5819 127.916 33.6859C127.795 34.0149 127.032 36.0609 126.876 36.8929C126.859 36.9789 126.876 37.0829 126.963 37.1009C127.465 37.1009 129.025 37.1179 129.199 37.1009C129.233 37.0829 129.285 36.9969 129.233 36.8749ZM129.545 31.2069C129.58 31.3799 129.649 31.5369 129.736 31.7959C130.897 35.1419 132.492 38.9209 132.822 39.8219C133.48 41.2959 133.67 41.4859 134.434 41.7289C134.711 41.7629 134.85 41.9019 134.85 41.9719C134.85 42.0579 134.763 42.2139 134.416 42.2139C133.965 42.2139 132.006 42.1099 131.626 42.1099C131.088 42.1099 130.499 42.1799 130.014 42.1799C129.701 42.1799 129.563 42.0579 129.563 41.9889C129.563 41.8509 129.684 41.7809 129.91 41.7119C130.655 41.4689 130.672 41.2959 130.672 40.9829C130.672 40.7579 129.91 38.7649 129.754 38.2619C129.684 38.1409 129.597 37.9329 129.459 37.9329C129.06 37.8979 127.621 37.8979 126.65 37.9329C126.616 37.9329 126.477 38.0889 126.425 38.2449C126.148 38.9729 125.697 40.5159 125.697 40.8619C125.697 41.2609 125.922 41.5209 126.668 41.7629C127.032 41.8669 127.084 41.9189 127.084 42.0229C127.101 42.1099 126.963 42.1969 126.72 42.1969C126.027 42.1969 125.593 42.1099 124.934 42.1099C124.363 42.1099 123.877 42.1969 123.426 42.1969C123.236 42.1969 123.045 42.1619 123.028 42.0059C123.028 41.8849 123.167 41.8329 123.392 41.7809C124.311 41.5379 124.553 41.1739 125.056 40.0639C125.541 38.9899 127.43 33.5469 127.951 31.9699C128.003 31.8309 128.055 31.5709 128.055 31.4669C128.055 31.3799 128.072 31.4149 128.072 31.2939C128.072 31.1889 128.211 31.0679 128.28 31.0509C128.419 30.9989 129.233 30.9819 129.389 31.0339C129.441 31.0509 129.528 31.1379 129.545 31.2069Z" fill="#2A2558"/>
<path d="M143.274 31.1893C143.863 31.1893 144.349 31.1203 144.591 30.9813C144.678 30.9293 144.782 30.8253 144.886 30.8253C144.938 30.8253 145.059 30.9993 145.025 31.1723C144.886 31.6923 144.73 32.6983 144.73 33.1483C144.713 33.4953 144.54 33.6333 144.453 33.6333C144.366 33.6333 144.314 33.4783 144.211 33.1483C143.95 32.3683 143.881 31.9523 142.962 31.9003C142.442 31.8663 141.818 31.8483 140.986 31.8483C140.882 31.8483 140.76 32.0733 140.744 32.1603C140.674 32.5933 140.674 33.0793 140.674 34.7263C140.674 36.8583 140.744 40.2203 140.76 40.3943C140.795 41.4853 141.263 41.4853 142.008 41.6763C142.252 41.7283 142.424 41.8153 142.424 41.9373C142.424 42.0923 142.217 42.1793 141.957 42.1793C141.904 42.1793 139.547 42.1103 139.322 42.1103C139.027 42.1103 137.19 42.1963 136.895 42.1963C136.584 42.1963 136.462 42.0923 136.462 41.9713C136.462 41.8333 136.756 41.7463 136.843 41.7283C138.039 41.5033 138.039 41.2433 138.161 39.9783C138.248 38.9033 138.334 35.1423 138.334 33.9283C138.334 32.8883 138.316 32.8013 138.316 32.1433C138.316 32.0213 138.248 31.8483 138.178 31.8483C137.97 31.8483 136.497 31.8663 136.219 31.8823C135.491 31.9523 135.266 32.2303 134.763 33.1143C134.625 33.3913 134.486 33.5303 134.381 33.5303C134.243 33.5303 134.209 33.3913 134.209 33.2173C134.313 32.5423 134.555 31.8483 134.538 30.9993C134.538 30.8773 134.693 30.7213 134.763 30.7213C134.815 30.7213 134.833 30.7393 134.936 30.7913C135.11 30.9123 135.266 31.1203 135.855 31.1553C136.132 31.1723 136.791 31.2073 138.039 31.2073L143.274 31.1893Z" fill="#2A2558"/>
<path d="M148.144 32.9578C148.074 32.0388 148.074 31.8138 147.277 31.6048C146.93 31.5188 146.844 31.3978 146.844 31.3118C146.844 31.2418 146.982 31.1378 147.242 31.1378C147.658 31.1378 148.802 31.2068 149.391 31.2068C150.275 31.2068 150.83 31.1378 151.42 31.1378C151.593 31.1378 151.871 31.1888 151.871 31.3278C151.871 31.4668 151.714 31.5368 151.455 31.6048C150.865 31.7438 150.674 31.8308 150.623 32.7318C150.553 33.4428 150.536 34.3788 150.536 35.5928C150.536 38.3838 150.57 39.6658 150.605 40.0988C150.691 41.2438 150.778 41.4688 151.68 41.6938C151.871 41.7458 152.027 41.8148 152.027 41.9718C152.027 42.1098 151.836 42.1798 151.593 42.1798C150.934 42.1798 149.721 42.1098 149.409 42.1098C148.906 42.1098 147.832 42.1798 147.156 42.1798C146.965 42.1798 146.74 42.1278 146.74 41.9368C146.74 41.8508 146.913 41.7458 147.138 41.6938C148.074 41.4168 148.126 41.3118 148.161 40.1868C148.178 39.4928 148.178 37.3948 148.178 36.2158C148.178 34.9858 148.195 33.5298 148.144 32.9578Z" fill="#2A2558"/>
<path d="M158.18 36.3724C157.989 36.3724 157.782 36.3904 157.66 36.4424C157.625 36.4584 157.556 36.6494 157.556 36.8404C157.539 37.4134 157.591 39.9434 157.643 40.3594C157.678 40.6714 157.695 40.9834 157.92 41.2264C158.25 41.5384 158.77 41.7284 158.961 41.7284C159.809 41.7284 160.815 40.5844 160.815 39.1984C160.815 37.5344 159.619 36.3724 158.18 36.3724ZM158.198 31.5184C158.059 31.5184 157.886 31.5534 157.764 31.6224C157.643 31.6924 157.608 31.7964 157.591 31.9694C157.574 32.4204 157.522 35.3494 157.556 35.7834C157.556 35.8174 157.66 35.9214 158.007 35.9214C158.648 35.9214 159.255 35.6964 159.515 35.4884C160.07 35.0894 160.278 34.3094 160.278 33.8244C160.278 32.2824 159.238 31.5184 158.198 31.5184ZM162.167 41.2784C161.352 41.9364 159.809 42.1794 158.7 42.1794C158.18 42.1794 156.811 42.1624 156.031 42.1274C155.389 42.1104 154.436 42.1794 154.176 42.1794C153.933 42.1794 153.691 42.1274 153.691 41.9714C153.691 41.8844 153.829 41.7804 154.037 41.7464C155.129 41.5384 155.078 41.2084 155.147 40.6364C155.199 40.3074 155.251 37.6554 155.251 35.7834C155.251 33.7034 155.199 32.9234 155.164 32.5764C155.112 31.8304 154.852 31.6754 154.02 31.5714C153.812 31.5534 153.604 31.4844 153.604 31.3284C153.604 31.2064 153.916 31.1554 154.037 31.1554H155.424C156.274 31.1554 157.868 31.0344 158.51 31.0344C159.671 31.0344 160.503 31.1724 161.266 31.5364C162.063 31.9004 162.583 32.7844 162.583 33.6164C162.583 34.7784 162.046 35.3674 161.075 35.8704C160.953 35.9214 161.023 35.9914 161.127 36.0084C162.791 36.6324 163.363 37.6724 163.363 38.9554C163.363 39.8564 162.826 40.7054 162.167 41.2784Z" fill="#2A2558"/>
<path d="M170.226 31.1375C170.572 31.1375 171.768 31.2065 172.582 31.2065C173.189 31.2065 174.057 31.1555 174.455 31.1555C174.628 31.1555 174.819 31.2765 174.819 31.3635C174.819 31.5015 174.594 31.6055 174.42 31.6405C173.744 31.7615 173.709 31.9525 173.918 32.4545C174.403 33.5815 175.496 35.6105 176.518 37.4295C176.57 37.5165 176.605 37.5855 176.674 37.4475C177.61 35.6795 178.407 33.7375 178.702 32.8705C178.961 32.0555 178.824 31.8305 177.939 31.5885C177.644 31.5015 177.575 31.4145 177.575 31.3275C177.575 31.2235 177.731 31.1555 177.974 31.1555C178.355 31.1555 178.824 31.2065 179.395 31.2065C179.898 31.2065 180.488 31.1555 180.869 31.1555C181.146 31.1555 181.18 31.2415 181.18 31.3455C181.18 31.4495 181.059 31.4845 180.869 31.5535C180.071 31.8485 179.846 32.0215 179.499 32.7665C178.251 35.4195 177.315 37.4475 176.205 39.4755C174.75 42.1965 173.692 42.8215 172.86 42.8215C172.531 42.8215 172.271 42.7515 172.011 42.5085C171.716 42.2485 171.629 41.9195 171.629 41.5375C171.629 41.4165 171.75 41.2605 171.803 41.2785C172.098 41.3995 172.722 41.5375 173.051 41.5375C173.866 41.5375 174.49 41.1915 174.941 40.5505C175.114 40.2895 175.131 39.9435 175.079 39.8395C174.646 38.7995 172.635 34.8815 171.595 32.9405C171.144 32.1435 170.902 31.7435 170.226 31.6055C169.965 31.5535 169.792 31.4665 169.792 31.3275C169.792 31.2935 169.861 31.1375 170.226 31.1375Z" fill="#2A2558"/>
<path d="M182.931 31.1376C183.329 31.1376 184.318 31.2066 184.89 31.2066C185.41 31.2066 186.744 31.1376 187.091 31.1376C187.473 31.1376 187.473 31.3116 187.473 31.3276C187.473 31.5016 187.195 31.5716 187.143 31.5886C186.363 31.7786 186.293 31.8136 186.207 32.8536C186.138 33.6856 186.155 35.3666 186.155 36.0956C186.155 36.1996 186.189 36.3376 186.277 36.3206C187.039 36.2516 187.473 36.1126 188.166 35.2286C188.564 34.7086 188.859 34.1716 189.483 33.1656C190.627 31.3116 191.321 30.9466 192.187 30.9466C192.62 30.9466 193.036 31.1896 193.036 31.5886C193.036 31.8136 192.811 32.2296 192.656 32.3166C192.534 32.3856 192.343 32.4036 192.256 32.3856C192.101 32.3686 191.736 32.2466 191.546 32.2466C190.783 32.2466 190.471 32.4546 189.674 33.7026C189.327 34.2746 188.911 34.8816 188.651 35.2806C188.634 35.2976 188.651 35.4196 188.668 35.4536C188.842 35.9046 190.592 38.8166 191.615 40.1166C192.828 41.6596 193.193 41.7286 194.025 41.8506C194.181 41.8666 194.32 41.9366 194.32 42.0406C194.32 42.1446 194.198 42.2316 193.973 42.2836C193.817 42.3176 193.626 42.3356 193.193 42.3356C190.471 42.3356 190.263 42.0756 189.171 40.6536C188.738 40.0986 187.767 38.4526 187.507 38.0546C186.709 36.8236 186.484 36.6846 186.259 36.6846C186.207 36.6846 186.155 36.7536 186.155 36.8926C186.155 38.8336 186.138 39.8216 186.224 40.6536C186.293 41.2436 186.519 41.5206 187.212 41.6766C187.541 41.7286 187.611 41.9026 187.611 41.9196C187.611 42.0406 187.42 42.1616 187.178 42.1616C186.848 42.1616 185.063 42.1106 184.543 42.1106C184.04 42.1106 183.278 42.1796 182.74 42.1796C182.636 42.1796 182.306 42.1106 182.306 41.9716C182.306 41.8326 182.463 41.7456 182.74 41.6946C183.624 41.4856 183.763 41.3996 183.797 40.1166C183.832 39.0076 183.867 37.8456 183.867 36.1996C183.867 35.2976 183.884 34.0676 183.832 33.0616C183.763 32.0556 183.728 31.7616 183.017 31.6226C182.619 31.5366 182.533 31.4496 182.533 31.3456C182.533 31.1726 182.81 31.1376 182.931 31.1376Z" fill="#2A2558"/>
<path d="M195.775 31.1727H197.543C198.426 31.1727 199.19 31.0857 200.074 31.0857C201.928 31.0857 202.968 31.6407 203.488 32.2127C204.251 33.0267 204.373 33.7897 204.373 34.4307C204.373 35.7487 203.783 36.4767 203.263 36.9097C202.656 37.4297 201.807 37.6547 201.217 37.6547C200.871 37.6547 200.524 37.6027 200.351 37.5337C200.108 37.4297 200.004 37.3257 200.004 37.1517C200.004 37.0837 200.108 37.0477 200.143 37.0477C200.264 37.0657 200.403 37.0657 200.472 37.0657C201.166 37.0657 201.98 36.3037 201.98 34.4837C201.98 33.2527 201.374 31.5707 199.813 31.5707C199.761 31.5707 199.484 31.6057 199.311 31.6927C199.12 31.7787 199.137 32.0387 199.12 32.4547C199.103 32.7497 199.103 33.6687 199.103 35.5577C199.086 37.1877 199.155 39.7707 199.172 40.1167C199.242 41.3297 199.363 41.4687 200.281 41.7457C200.576 41.8327 200.697 41.8847 200.697 41.9717C200.697 42.0757 200.593 42.2147 200.299 42.2147C199.848 42.2147 198.41 42.1107 197.647 42.1107C197.144 42.1107 196.381 42.1797 195.896 42.1797C195.463 42.1797 195.341 42.0927 195.341 41.9367C195.341 41.8157 195.619 41.7457 195.705 41.7287C196.589 41.5377 196.659 41.3297 196.693 40.4287C196.693 40.3247 196.746 38.0197 196.746 35.6097C196.746 34.0327 196.728 33.0097 196.711 32.8017C196.659 32.0557 196.607 31.8307 195.809 31.6577C195.567 31.6057 195.376 31.5187 195.376 31.3807C195.376 31.2417 195.653 31.1727 195.775 31.1727Z" fill="#2A2558"/>
<path d="M210.473 36.8749C210.196 36.0259 209.624 34.4309 209.364 33.7549C209.295 33.5819 209.191 33.5819 209.156 33.6859C209.035 34.0149 208.272 36.0609 208.116 36.8929C208.099 36.9789 208.116 37.0829 208.202 37.1009C208.705 37.1009 210.265 37.1179 210.439 37.1009C210.473 37.0829 210.525 36.9969 210.473 36.8749ZM210.785 31.2069C210.82 31.3799 210.889 31.5369 210.976 31.7959C212.137 35.1419 213.732 38.9209 214.062 39.8219C214.721 41.2959 214.91 41.4859 215.674 41.7289C215.951 41.7629 216.09 41.9019 216.09 41.9719C216.09 42.0579 216.003 42.2139 215.656 42.2139C215.205 42.2139 213.246 42.1099 212.866 42.1099C212.328 42.1099 211.739 42.1799 211.253 42.1799C210.941 42.1799 210.803 42.0579 210.803 41.9889C210.803 41.8509 210.924 41.7809 211.15 41.7119C211.895 41.4689 211.912 41.2959 211.912 40.9829C211.912 40.7579 211.15 38.7649 210.994 38.2619C210.924 38.1409 210.838 37.9329 210.699 37.9329C210.3 37.8979 208.861 37.8979 207.89 37.9329C207.856 37.9329 207.717 38.0889 207.665 38.2449C207.388 38.9729 206.937 40.5159 206.937 40.8619C206.937 41.2609 207.162 41.5209 207.908 41.7629C208.272 41.8669 208.324 41.9189 208.324 42.0229C208.342 42.1099 208.202 42.1969 207.96 42.1969C207.267 42.1969 206.833 42.1099 206.174 42.1099C205.603 42.1099 205.117 42.1969 204.666 42.1969C204.476 42.1969 204.285 42.1619 204.268 42.0059C204.268 41.8849 204.407 41.8329 204.632 41.7809C205.551 41.5379 205.793 41.1739 206.296 40.0639C206.781 38.9899 208.67 33.5469 209.191 31.9699C209.243 31.8309 209.295 31.5709 209.295 31.4669C209.295 31.3799 209.312 31.4149 209.312 31.2939C209.312 31.1889 209.451 31.0679 209.52 31.0509C209.659 30.9989 210.473 30.9819 210.629 31.0339C210.681 31.0509 210.768 31.1379 210.785 31.2069Z" fill="#2A2558"/>
<path d="M222.832 29.5599C222.832 30.1499 222.243 30.4959 221.879 30.4959C221.497 30.4959 220.995 30.2539 220.995 29.5249C220.995 29.0579 221.358 28.5379 221.965 28.5379C222.538 28.5379 222.832 29.1269 222.832 29.5599ZM218.897 32.9579C218.828 32.0389 218.828 31.8139 218.03 31.6049C217.684 31.5189 217.598 31.3979 217.598 31.3109C217.598 31.2419 217.736 31.1379 217.996 31.1379C218.412 31.1379 219.556 31.2069 220.145 31.2069C221.029 31.2069 221.584 31.1379 222.174 31.1379C222.347 31.1379 222.624 31.1889 222.624 31.3279C222.624 31.4669 222.468 31.5369 222.208 31.6049C221.619 31.7439 221.428 31.8309 221.376 32.7319C221.307 33.4429 221.29 34.3789 221.29 35.5929C221.29 38.3839 221.324 39.6659 221.358 40.0989C221.445 41.2439 221.532 41.4689 222.434 41.6939C222.624 41.7459 222.78 41.8149 222.78 41.9719C222.78 42.1099 222.59 42.1799 222.347 42.1799C221.688 42.1799 220.475 42.1099 220.163 42.1099C219.66 42.1099 218.585 42.1799 217.909 42.1799C217.719 42.1799 217.493 42.1279 217.493 41.9369C217.493 41.8509 217.666 41.7459 217.892 41.6939C218.828 41.4169 218.88 41.3119 218.915 40.1859C218.932 39.4929 218.932 37.3949 218.932 36.2159C218.932 34.9859 218.949 33.5299 218.897 32.9579ZM219.348 29.5599C219.348 30.1319 218.776 30.4959 218.395 30.4959C217.978 30.4959 217.493 30.2359 217.493 29.5249C217.493 29.0399 217.909 28.5379 218.499 28.5379C219.071 28.5379 219.348 29.1439 219.348 29.5599Z" fill="#2A2558"/>
<path d="M224.998 31.1375C225.449 31.1375 226.713 31.2065 227.182 31.2065C227.979 31.2065 228.742 31.1555 229.123 31.1555C229.331 31.1555 229.591 31.2065 229.591 31.3455C229.591 31.4845 229.47 31.5535 229.141 31.6225C228.464 31.7615 228.447 32.0385 228.395 32.8365C228.377 33.4255 228.326 35.1415 228.377 35.6795C228.395 35.9385 228.413 36.0775 228.516 36.0955C229.418 36.1125 232.885 36.0775 233.231 36.0605C233.405 36.0425 233.492 36.0085 233.492 35.8875C233.492 34.5005 233.508 33.6515 233.456 32.6805C233.405 32.0555 233.37 31.7615 232.607 31.5715C232.451 31.5365 232.157 31.4845 232.157 31.3115C232.157 31.1555 232.416 31.1205 232.607 31.1205C232.781 31.1205 234.219 31.2065 234.67 31.2065C235.242 31.2065 236.525 31.1375 236.646 31.1375C237.062 31.1375 237.166 31.2415 237.166 31.3455C237.166 31.4495 237.027 31.5365 236.768 31.6055C236.004 31.7965 235.883 31.8825 235.849 32.5595C235.797 33.7205 235.779 34.8815 235.779 36.9615C235.779 38.4005 235.762 39.7865 235.849 40.6025C235.936 41.2955 236.074 41.5375 236.785 41.7115C237.08 41.8155 237.184 41.8845 237.184 41.9715C237.184 42.1275 237.027 42.1965 236.768 42.1965C236.49 42.1965 234.947 42.1105 234.462 42.1105C234.115 42.1105 232.902 42.1445 232.59 42.1445C232.416 42.1445 232.139 42.0755 232.139 41.9535C232.139 41.8155 232.33 41.7455 232.538 41.7115C233.301 41.5035 233.405 41.3825 233.474 39.9955C233.492 39.3545 233.508 38.0545 233.474 37.3435C233.439 36.9095 233.353 36.8925 233.214 36.8925C232.815 36.8925 228.707 36.8925 228.516 36.9095C228.447 36.9275 228.395 37.1525 228.377 37.2905C228.326 37.7065 228.326 39.4405 228.43 40.4975C228.482 41.2605 228.586 41.4685 229.366 41.6765C229.713 41.7455 229.799 41.8505 229.799 41.9535C229.799 42.0405 229.713 42.1615 229.366 42.1615C229.262 42.1615 227.823 42.1105 227.234 42.1105C226.835 42.1105 225.639 42.2145 225.033 42.2145C224.79 42.2145 224.564 42.1615 224.564 41.9895C224.564 41.8505 224.807 41.7625 224.946 41.7455C225.778 41.5895 225.899 41.3825 225.951 40.3255C225.986 39.7355 226.003 38.4705 226.003 36.4585C226.003 34.8125 226.003 33.4945 225.934 32.6105C225.881 32.0045 225.778 31.7785 225.102 31.6055C224.703 31.5185 224.599 31.4325 224.599 31.3115C224.599 31.2415 224.755 31.1375 224.998 31.1375Z" fill="#2A2558"/>
<path d="M239.627 31.1551C240.164 31.1551 240.373 31.2071 240.893 31.2071C241.672 31.2071 243.163 31.1551 243.648 31.1551C243.891 31.1551 244.064 31.2761 244.064 31.3451C244.064 31.5361 243.874 31.6051 243.596 31.6401C243.042 31.7611 242.869 31.9001 242.851 32.9581C242.834 33.9281 242.782 37.5681 242.782 38.9211C242.782 39.0591 242.903 39.1111 242.938 39.0591C242.938 39.0591 246.352 35.0901 247.722 33.2691C247.826 33.1311 247.964 32.9051 247.964 32.7151C247.964 32.0391 247.895 31.8481 247.254 31.6401C247.029 31.5891 246.82 31.4841 246.82 31.3451C246.82 31.1731 247.115 31.1551 247.289 31.1551C247.531 31.1551 248.294 31.2071 248.814 31.2071C249.455 31.2071 251.033 31.1551 251.258 31.1551C251.483 31.1551 251.553 31.3281 251.553 31.3981C251.553 31.5361 251.397 31.5891 251.189 31.6401C250.512 31.8481 250.305 31.9691 250.287 32.5241C250.27 33.4431 250.252 34.7261 250.252 36.3721C250.252 38.5741 250.339 40.1161 250.339 40.3421C250.357 41.2081 250.547 41.4681 251.189 41.6421C251.553 41.7461 251.674 41.8501 251.674 41.9711C251.674 42.0581 251.553 42.1791 251.206 42.1791C250.877 42.1791 249.802 42.1101 249.23 42.1101C248.311 42.1101 247.41 42.1621 247.029 42.1621C246.699 42.1621 246.578 42.0581 246.578 41.9371C246.578 41.8151 246.717 41.7281 246.959 41.6591C247.895 41.4681 247.895 41.3991 247.964 39.9781C247.982 39.5271 248.016 37.5161 248.016 33.9801C248.016 33.8761 247.93 33.8761 247.913 33.8941L243.024 39.8391C242.938 39.9611 242.834 40.0641 242.851 40.2731C242.903 41.0011 242.834 41.3821 243.683 41.6251C244.03 41.7281 244.117 41.8841 244.117 41.9371C244.117 42.0231 244.012 42.1621 243.631 42.1621C243.492 42.1621 241.898 42.1101 241.221 42.1101C240.753 42.1101 240.112 42.2141 239.488 42.2141C239.107 42.2141 239.038 41.9891 239.038 41.9541C239.038 41.9371 239.229 41.7461 239.402 41.7121C240.32 41.5551 240.355 41.3301 240.424 40.3591C240.476 39.7701 240.511 38.6951 240.511 36.1301C240.511 34.2061 240.476 33.4781 240.441 32.8011C240.407 32.1951 240.286 31.8661 239.644 31.6921C239.315 31.5891 239.125 31.5191 239.125 31.3631C239.125 31.1891 239.419 31.1551 239.627 31.1551Z" fill="#2A2558"/>
<path fill-rule="evenodd" clip-rule="evenodd" d="M44.1978 1.47981C44.1978 1.47981 46.5128 1.28481 45.8088 5.98181H41.9388C42.4558 1.27581 44.1978 1.47981 44.1978 1.47981Z" fill="#134391"/>
<path fill-rule="evenodd" clip-rule="evenodd" d="M2.95274 55.2143C2.95274 55.2143 0.637739 55.4083 1.34174 50.7123H5.21174C4.54174 55.6023 2.95274 55.2143 2.95274 55.2143Z" fill="#134391"/>
<path fill-rule="evenodd" clip-rule="evenodd" d="M40.3213 7.30014C40.3213 7.30014 39.1243 15.5401 42.4573 28.1571C42.4573 28.1571 47.7323 46.8881 39.7373 55.4341H4.85934C4.85934 55.4341 6.48635 53.9701 6.89035 49.3941C6.89035 49.3941 8.08834 41.1551 4.75435 28.5451C4.75435 28.5451 -0.640655 10.4671 7.35234 1.32114H42.1073C42.1073 1.32114 40.7263 2.72314 40.3213 7.30014Z" fill="#134391"/>
<path fill-rule="evenodd" clip-rule="evenodd" d="M40.3214 7.30016C40.3214 7.30016 39.1244 15.5402 42.4574 28.1572C42.4574 28.1572 47.7324 46.8882 39.7374 55.4342H4.85936C4.85936 55.4342 6.48636 53.9702 6.89036 49.3942C6.89036 49.3942 8.08836 41.1552 4.75436 28.5452C4.75436 28.5452 -0.640644 10.4672 7.35236 1.32116H42.1074C42.1074 1.32116 40.7264 2.72316 40.3214 7.30016ZM2.95236 55.2142C2.95236 55.2142 0.63736 55.4082 1.34236 50.7122H5.21236C4.54136 55.6022 2.95236 55.2142 2.95236 55.2142ZM44.1974 1.48016C44.1974 1.48016 46.5134 1.28515 45.8084 5.98215H41.9394C42.4564 1.27615 44.1974 1.48016 44.1974 1.48016ZM46.8884 7.16315C46.8884 7.16315 48.5364 -0.0358472 43.5614 0.000152588H7.09636C-2.36364 8.96915 3.15636 28.0292 3.15636 28.0292C6.74836 42.4212 5.34536 49.5302 5.34536 49.5302H0.261357C0.261357 49.5302 -1.38564 56.7302 3.58936 56.6932H39.9314C49.4444 48.0362 43.9944 28.6742 43.9944 28.6742C40.4024 14.2722 41.8054 7.16315 41.8054 7.16315H46.8884Z" fill="#FCC307"/>
<path d="M23.878 49.057C23.926 48.726 24.216 48.642 24.216 48.642C24.381 48.614 24.68 48.574 24.751 48.56C27.068 48.09 26.487 47.132 26.487 47.132C26.975 47.006 27.379 47.945 27.379 47.945C26.546 49.03 23.878 49.057 23.878 49.057ZM22.05 43.07C22.05 43.07 22.696 43.227 23.804 43.04C23.821 43.036 22.434 44.144 22.05 43.07ZM21.213 42.355C21.213 42.355 20.76 42.622 21.268 43.07C21.268 43.07 21.872 43.496 21.927 43.878C21.927 43.878 22.015 44.31 21.603 44.755C21.382 44.995 21.091 45.237 20.595 45.599C20.595 45.599 18.382 46.944 18.453 48.587C18.453 48.587 19.408 49.931 23.341 49.965H23.623C27.584 49.937 28.544 48.587 28.544 48.587C28.667 46.96 26.4 45.599 26.4 45.599C25.905 45.237 25.614 44.995 25.391 44.755C24.979 44.31 25.068 43.878 25.068 43.878C25.123 43.496 25.728 43.07 25.728 43.07C26.236 42.622 25.852 42.355 25.852 42.355C23.637 42.117 23.367 42.117 21.213 42.355Z" fill="#FCC307"/>
<path fill-rule="evenodd" clip-rule="evenodd" d="M15.3535 23.5257C15.5115 23.4927 15.5875 23.6937 15.5875 23.6937C15.5875 23.6937 16.7325 25.9387 17.4755 29.2177C18.3345 33.0047 17.1015 34.5327 17.1015 34.5327C15.8455 36.1887 16.2395 37.0757 16.2395 37.0757C15.7375 37.3587 15.3535 37.9757 15.3535 37.9757V37.6547V23.5257ZM17.8885 34.6827C18.1465 34.2317 18.5305 33.5857 18.6085 32.4047C18.6605 31.6337 18.6495 31.6577 18.6335 31.2287C18.4915 29.7167 18.0105 26.5647 15.7585 21.0637C15.7585 21.0637 14.9465 19.1217 14.3955 19.5857V20.8347V38.7327C14.3955 39.7397 15.0445 39.6937 15.0445 39.6937C16.3545 37.4217 17.7465 37.6867 17.7465 37.6867C19.2625 37.7397 19.4865 39.2527 19.4865 39.2527L18.4915 38.9597C17.8955 38.8447 17.7225 39.2187 17.7225 39.2187C17.7225 39.2187 19.4245 39.7877 21.0705 40.6127C21.0705 40.6127 21.0265 36.8567 17.9955 36.6257C17.5305 36.5897 16.9485 36.7707 17.0365 36.7357C17.0365 36.7357 16.7835 35.9477 17.8885 34.6827Z" fill="#FCC307"/>
<path d="M23.7193 39.185C23.7193 39.185 23.6703 39.626 23.4953 39.622C23.4953 39.622 23.3153 39.619 23.2883 39.185C23.0733 32.613 23.1743 25.148 23.1743 25.148C23.1743 21.992 23.4523 17.328 23.5043 16.512C23.5543 17.328 23.8333 21.992 23.8333 25.148C23.8313 34.812 23.8603 34.699 23.7193 39.185ZM24.0543 42.309C23.9673 42.052 23.7583 41.539 23.9583 40.07L23.9873 40.066C24.2753 40.026 26.5683 39.454 26.5683 31.735C26.5683 31.735 26.0193 31.955 25.3753 31.841C25.6873 30.818 26.7333 29.932 26.7333 29.932C26.7333 29.932 27.2693 16.351 25.3833 13.235C24.9673 13.593 24.4683 13.68 24.4683 13.68C24.4943 13.147 25.0563 12.05 25.0563 12.05C25.0563 12.05 24.0203 6.31496 22.3353 6.82196C22.3353 6.82196 22.9223 8.39996 21.8603 12.341C21.8603 12.341 20.8313 16.068 20.6243 18.624C20.6243 18.624 20.3333 21.414 20.4343 23.373C20.4343 23.373 21.2383 24.437 21.3223 25.067C20.8973 25.185 20.2963 25.067 20.2963 25.067C20.2963 25.067 19.9283 32.962 21.0943 37.277C21.0943 37.277 21.6173 39.585 23.0143 40.058L23.0513 40.07C23.2513 41.537 23.0413 42.052 22.9533 42.309H24.0543Z" fill="#FCC307"/>
<path fill-rule="evenodd" clip-rule="evenodd" d="M31.7344 37.6547V37.9757C31.7344 37.9757 31.3514 37.3587 30.8494 37.0757C30.8494 37.0757 31.2434 36.1887 29.9874 34.5327C29.9874 34.5327 28.7544 33.0047 29.6134 29.2177C30.3564 25.9387 31.5014 23.6937 31.5014 23.6937C31.5014 23.6937 31.5774 23.4927 31.7344 23.5257V37.6547ZM30.0524 36.7357C30.1404 36.7707 29.5584 36.5907 29.0924 36.6257C26.0624 36.8567 26.0184 40.6127 26.0184 40.6127C27.6634 39.7877 29.3654 39.2187 29.3654 39.2187C29.3654 39.2187 29.1934 38.8447 28.5974 38.9597L27.6024 39.2527C27.6024 39.2527 27.8264 37.7397 29.3424 37.6867C29.3424 37.6867 30.7344 37.4227 32.0434 39.6937C32.0434 39.6937 32.6934 39.7397 32.6934 38.7327V20.8347V19.5857C32.1404 19.1217 31.3294 21.0637 31.3294 21.0637C29.0774 26.5647 28.5974 29.7167 28.4554 31.2287C28.4384 31.6577 28.4284 31.6337 28.4794 32.4047C28.5584 33.5857 28.9414 34.2317 29.1994 34.6827C30.3054 35.9477 30.0524 36.7357 30.0524 36.7357Z" fill="#FCC307"/>
</svg>
