<svg width="587" height="113" viewBox="0 0 587 113" fill="none" xmlns="http://www.w3.org/2000/svg">
<path d="M58.5 82.7656H24.7812L19.2969 98H1.01562L31.0781 20.8125H52.6094L82.6719 98H63.9844L58.5 82.7656ZM53.0156 67.7344L41.6406 36.0469L30.2656 67.7344H53.0156ZM156.812 83.375V112.219H141.172V98H102.375V112.219H86.7344V83.375H94.25C95.0625 78.6354 95.4688 71.6615 95.4688 62.4531V37.0625H148.688V83.375H156.812ZM132.641 83.7812V51.2812H111.312V63.0625C111.312 71.1875 110.906 78.0938 110.094 83.7812H132.641ZM211.047 66.7188C214.568 67.8021 217.208 69.6302 218.969 72.2031C220.865 74.6406 221.812 77.6198 221.812 81.1406C221.812 86.5573 219.781 90.7552 215.719 93.7344C211.792 96.5781 206.24 98 199.062 98H168.594V37.0625H196.828C204.276 37.0625 210.031 38.4167 214.094 41.125C218.156 43.6979 220.188 47.6927 220.188 53.1094C220.188 59.6094 217.141 64.1458 211.047 66.7188ZM183.828 61.2344H196.828C199.536 61.2344 201.5 60.7604 202.719 59.8125C203.938 58.8646 204.547 57.3073 204.547 55.1406C204.547 53.2448 203.87 51.7552 202.516 50.6719C201.297 49.5885 199.469 49.0469 197.031 49.0469H183.828V61.2344ZM197.438 85.8125C200.01 85.8125 201.974 85.2708 203.328 84.1875C204.818 82.9688 205.562 81.3438 205.562 79.3125C205.562 77.1458 204.818 75.4531 203.328 74.2344C201.839 73.0156 199.74 72.4062 197.031 72.4062H183.828V85.8125H197.438ZM261.828 99.0156C252.214 99.0156 244.495 96.1719 238.672 90.4844C232.849 84.6615 229.938 77.0104 229.938 67.5312C229.938 58.0521 232.849 50.4688 238.672 44.7812C244.495 38.9583 252.214 36.0469 261.828 36.0469C271.443 36.0469 279.161 38.9583 284.984 44.7812C290.807 50.4688 293.719 58.0521 293.719 67.5312C293.719 77.0104 290.807 84.6615 284.984 90.4844C279.161 96.1719 271.443 99.0156 261.828 99.0156ZM261.828 85.6094C266.568 85.6094 270.292 84.0521 273 80.9375C275.708 77.6875 277.062 73.2188 277.062 67.5312C277.062 61.8438 275.708 57.4427 273 54.3281C270.292 51.0781 266.568 49.4531 261.828 49.4531C257.089 49.4531 253.365 51.0781 250.656 54.3281C247.948 57.4427 246.594 61.8438 246.594 67.5312C246.594 73.2188 247.948 77.6875 250.656 80.9375C253.365 84.0521 257.089 85.6094 261.828 85.6094ZM330.281 72.2031L322.359 79.9219V98H306.109V37.0625H322.359V61.4375L345.516 37.0625H365.828L341.656 61.0312L366.641 98H347.547L330.281 72.2031ZM431.031 83.9844V98C429.406 98.2708 427.443 98.4062 425.141 98.4062C421.349 98.4062 418.37 97.6615 416.203 96.1719C414.172 94.6823 412.885 92.3802 412.344 89.2656C410.177 92.2448 407.198 94.6146 403.406 96.375C399.75 98.1354 395.688 99.0156 391.219 99.0156C385.26 99.0156 380.453 97.3906 376.797 94.1406C373.141 90.8906 371.312 86.625 371.312 81.3438C371.312 74.3021 373.75 69.4271 378.625 66.7188C383.5 64.0104 389.797 62.1823 397.516 61.2344C401.578 60.6927 404.625 60.0833 406.656 59.4062C408.823 58.5938 409.906 57.375 409.906 55.75C409.906 53.8542 408.891 52.2969 406.859 51.0781C404.964 49.8594 402.323 49.25 398.938 49.25C392.573 49.25 387.021 51.6198 382.281 56.3594L372.531 46.4062C379.844 39.5 388.984 36.0469 399.953 36.0469C407.807 36.0469 413.969 37.875 418.438 41.5312C422.906 45.1875 425.141 50.1979 425.141 56.5625V80.5312C425.141 82.8333 426.292 83.9844 428.594 83.9844H431.031ZM394.875 86.2188C398.938 86.2188 402.391 85.0677 405.234 82.7656C408.078 80.4635 409.5 77.6198 409.5 74.2344V68.9531C408.417 69.6302 406.927 70.1719 405.031 70.5781C403.271 70.9844 401.307 71.3906 399.141 71.7969C395.078 72.474 392.031 73.3542 390 74.4375C387.969 75.3854 386.953 77.1458 386.953 79.7188C386.953 81.75 387.63 83.375 388.984 84.5938C390.339 85.6771 392.302 86.2188 394.875 86.2188ZM495.422 51.6875H474.297V98H458.047V51.6875H436.922V37.0625H495.422V51.6875Z" fill="#2A2558"/>
<path opacity="0.98" d="M575.395 51.8027H549.93V77.5078H534.555V51.8027H509.09V36.9082H534.555V11.2031H549.93V36.9082H575.395V51.8027Z" fill="#FCC308"/>
</svg>
