<svg width="29" height="29" viewBox="0 0 29 29" fill="none" xmlns="http://www.w3.org/2000/svg">
<rect x="0.740234" y="0.482422" width="28" height="28" rx="6" fill="#0B84EE"/>
<path fill-rule="evenodd" clip-rule="evenodd" d="M14.2252 7.02319C11.3339 7.30285 8.8687 8.96181 7.69447 11.418C6.61608 13.6737 6.80193 16.2508 8.19392 18.3443C8.62001 18.9852 9.0531 19.4512 9.8925 20.1724L10 20.2647L10.0006 21.528C10.0012 22.8744 10.014 22.9748 10.1883 22.9998C10.2464 23.0081 10.711 22.769 11.5364 22.306L12.7959 21.5995L13.2468 21.6912C14.8352 22.0144 16.5348 21.8881 18.005 21.3376C19.1578 20.9061 20.1287 20.2678 20.9877 19.3769C22.0216 18.3047 22.6548 17.0838 22.9311 15.6307C22.9834 15.3555 22.9999 15.0669 23 14.4265C23.0001 13.7036 22.9873 13.5206 22.9103 13.1364C22.405 10.618 20.6187 8.56269 18.0574 7.55285C17.5987 7.372 16.8015 7.16518 16.2434 7.08224C15.7216 7.00466 14.7197 6.97536 14.2252 7.02319ZM15.1082 13.5743C15.984 14.5094 16.0995 14.6182 16.2184 14.621C16.2513 14.6217 16.9707 14.2448 17.8171 13.7833C18.6635 13.3218 19.38 12.9534 19.4094 12.9647C19.4387 12.976 19.4627 13.0194 19.4627 13.0612C19.4627 13.15 15.9759 16.8792 15.8578 16.9167C15.8158 16.9301 15.7432 16.9309 15.6963 16.9186C15.6495 16.9063 15.2768 16.5418 14.8682 16.1085C13.9444 15.1289 13.7813 14.9749 13.6675 14.975C13.6182 14.9751 12.8755 15.3549 12.0171 15.8191C11.1587 16.2833 10.4329 16.654 10.4042 16.643C10.3755 16.632 10.352 16.5878 10.352 16.5448C10.352 16.4956 11.0208 15.755 12.1576 14.5454C13.8241 12.7723 13.9731 12.6242 14.0908 12.6242C14.2068 12.6242 14.2987 12.71 15.1082 13.5743Z" fill="white"/>
</svg>
