<svg width="30" height="31" viewBox="0 0 30 31" fill="none" xmlns="http://www.w3.org/2000/svg"><g clip-path="url(#clip0_212_3532)" fill="#1397D6"><path d="M15 .5a15 15 0 1015 15 15.016 15.016 0 00-15-15zM15 28a12.5 12.5 0 1112.5-12.5A12.514 12.514 0 0115 28z"/><path d="M15 13h-1.25a1.25 1.25 0 100 2.5H15V23a1.25 1.25 0 102.5 0v-7.5A2.5 2.5 0 0015 13zm0-2.5a1.875 1.875 0 100-3.75 1.875 1.875 0 000 3.75z"/></g><defs><clipPath id="clip0_212_3532"><path fill="#fff" transform="translate(0 .5)" d="M0 0h30v30H0z"/></clipPath></defs></svg>