<svg width="30" height="31" viewBox="0 0 30 31" fill="none" xmlns="http://www.w3.org/2000/svg"><g clip-path="url(#clip0_212_3314)" fill="#1397D6"><path d="M30 14.559A15.015 15.015 0 1015.02 30.5h8.729A6.256 6.256 0 0030 24.25v-9.69zm-2.5 9.691A3.75 3.75 0 0123.75 28h-8.73a12.551 12.551 0 01-9.345-4.178 12.396 12.396 0 01-3.095-9.768A12.554 12.554 0 0113.4 3.103 13.2 13.2 0 0115.026 3 12.4 12.4 0 0123 5.875a12.551 12.551 0 014.5 8.803v9.572z"/><path d="M10 11.75h5a1.25 1.25 0 000-2.5h-5a1.25 1.25 0 000 2.5zm10 2.5H10a1.25 1.25 0 000 2.5h10a1.25 1.25 0 000-2.5zm0 5H10a1.25 1.25 0 000 2.5h10a1.25 1.25 0 000-2.5z"/></g><defs><clipPath id="clip0_212_3314"><path fill="#fff" transform="translate(0 .5)" d="M0 0h30v30H0z"/></clipPath></defs></svg>