<svg width="25" height="24" viewBox="0 0 25 24" fill="none" xmlns="http://www.w3.org/2000/svg"><mask id="a" maskUnits="userSpaceOnUse" x="0" y="0" width="25" height="24" fill="#000"><path fill="#fff" d="M0 0h25v24H0z"/><path fill-rule="evenodd" clip-rule="evenodd" d="M11.54 1.1c-.63.166-1.15.47-1.646.965-.648.646-.945 1.245-1.066 2.148-.144 1.088.25 2.197 1.068 3 .459.451.807.668 1.416.883.414.146.495.158 1.134.158.639 0 .72-.012 1.134-.158.62-.219.963-.435 1.442-.91.34-.335.456-.493.65-.89.313-.637.408-1.023.407-1.655a3.433 3.433 0 00-.385-1.656c-.172-.349-.303-.523-.674-.895-.526-.529-1.026-.822-1.689-.992-.516-.132-1.281-.13-1.79.003zm1.583.84c.646.168 1.314.649 1.667 1.198.53.827.564 1.884.09 2.825-.186.368-.718.91-1.094 1.112-.337.18-.97.342-1.34.342-.371 0-1.004-.162-1.34-.342-.402-.216-.909-.742-1.117-1.16a2.632 2.632 0 01-.31-1.352c.005-.498.157-1.01.42-1.419.353-.551 1.01-1.03 1.648-1.201.353-.096 1.015-.097 1.376-.003zm-1.816 7.033c-1.985.374-3.599 1.761-4.228 3.635l-.126.376-.45-.885c-.436-.856-.457-.888-.638-.933-.33-.08-.39-.003-1.083 1.421-.615 1.264-.633 1.294-.8 1.323-.095.017-.733.111-1.42.21-.74.107-1.295.211-1.365.257-.14.092-.228.3-.187.447.016.06.501.567 1.077 1.128l1.048 1.02-.236 1.374c-.13.756-.236 1.436-.235 1.51 0 .191.276.418.462.381.075-.015.7-.323 1.389-.685l1.251-.657 1.307.686c1.177.619 1.322.682 1.462.642a.584.584 0 00.26-.183l.103-.14-.112-.645c-.061-.355-.104-.652-.095-.661.008-.01.21.178.446.416l.43.432-.272 1.598c-.254 1.5-.266 1.608-.192 1.751.18.35.318.312 1.884-.51.76-.4 1.417-.726 1.459-.726.042 0 .698.326 1.459.726 1.566.822 1.703.86 1.884.51.074-.143.062-.25-.193-1.75l-.27-1.6.43-.431c.236-.238.436-.425.445-.416.009.008-.034.306-.096.661l-.112.646.104.139a.583.583 0 00.26.183c.14.04.285-.024 1.463-.642l1.308-.686 1.252.658c.688.361 1.315.67 1.394.686.114.023.176-.004.299-.126.085-.085.155-.209.155-.274 0-.065-.106-.736-.236-1.492l-.236-1.374 1.048-1.02c.577-.562 1.062-1.07 1.078-1.13.04-.147-.047-.354-.19-.447-.071-.047-.611-.15-1.364-.258-.686-.098-1.324-.192-1.418-.208-.167-.029-.185-.058-.8-1.323-.694-1.424-.754-1.502-1.083-1.42-.181.044-.203.076-.638.932l-.45.885-.124-.366a5.407 5.407 0 00-2.746-3.14c-.848-.421-1.371-.54-2.47-.562-.639-.013-1.005.003-1.292.057zm2.235.884c1.883.389 3.338 1.906 3.632 3.789.025.16.027.292.005.292s-.58.08-1.24.179c-.66.098-1.224.178-1.253.178-.13 0-.304.252-.304.439 0 .176.049.237.7.871.386.375.655.671.599.657a18.744 18.744 0 00-.783-.117l-.681-.092-.683-1.4c-.376-.77-.733-1.451-.793-1.515a.375.375 0 00-.295-.117.375.375 0 00-.296.117c-.06.064-.417.747-.793 1.518l-.684 1.401-.68.09c-.374.05-.726.102-.782.116-.056.013.213-.28.598-.653.623-.603.7-.697.7-.847 0-.2-.068-.345-.197-.414-.074-.04-2.422-.41-2.598-.41-.023 0-.022-.132.003-.293.284-1.86 1.743-3.393 3.608-3.787.6-.126 1.61-.127 2.217-.002zm-7.27 3.723c.31.642.508.994.592 1.049.103.067 1.89.372 2.219.378.11.002-1.38 1.479-1.493 1.479-.052 0-.16.067-.243.149-.213.212-.198.392.057.68.197.225.21.261.328.936.068.387.114.711.104.722-.01.01-.44-.202-.953-.472-.513-.27-.993-.504-1.067-.52-.103-.022-.356.09-1.112.49-.538.286-.99.509-1.002.496-.013-.013.059-.509.16-1.101.101-.593.17-1.121.153-1.175-.017-.053-.394-.45-.838-.88l-.808-.785 1.1-.162c.605-.09 1.147-.194 1.205-.232.057-.039.322-.508.587-1.044.266-.536.497-.974.515-.974.017 0 .24.435.497.966zm13.358.008c.266.536.53 1.005.587 1.043.057.038.601.143 1.21.232l1.104.163-.811.783c-.446.43-.826.827-.843.88-.017.055.052.584.153 1.177.1.592.173 1.088.16 1.1-.013.014-.464-.21-1.002-.494-.757-.401-1.01-.513-1.113-.49-.073.015-.553.249-1.067.519-.513.27-.94.483-.95.473-.009-.01.037-.333.102-.72.116-.678.126-.709.326-.936.256-.291.272-.47.058-.683-.082-.082-.19-.15-.242-.15-.113 0-1.603-1.476-1.493-1.478.329-.006 2.115-.31 2.219-.378.083-.055.282-.407.591-1.049.256-.531.48-.966.497-.966.017 0 .249.438.514.974zm-6.626 1.958c.317.658.583 1.143.662 1.21.112.094.33.14 1.367.289.678.097 1.234.19 1.234.205 0 .016-.413.44-.917.94-.79.787-.917.935-.917 1.07 0 .085.091.68.203 1.323.111.643.196 1.175.189 1.183-.008.007-.512-.25-1.121-.57-.687-.362-1.165-.584-1.258-.584-.093 0-.572.222-1.258.584-.61.32-1.114.577-1.121.57-.008-.008.077-.54.189-1.182.111-.643.203-1.24.203-1.327 0-.138-.12-.277-.917-1.067-.504-.5-.917-.923-.917-.939 0-.016.555-.109 1.234-.206 1.037-.15 1.255-.195 1.366-.289.08-.067.345-.552.662-1.21.292-.604.543-1.098.559-1.098.016 0 .267.494.558 1.098z"/></mask><path fill-rule="evenodd" clip-rule="evenodd" d="M11.54 1.1c-.63.166-1.15.47-1.646.965-.648.646-.945 1.245-1.066 2.148-.144 1.088.25 2.197 1.068 3 .459.451.807.668 1.416.883.414.146.495.158 1.134.158.639 0 .72-.012 1.134-.158.62-.219.963-.435 1.442-.91.34-.335.456-.493.65-.89.313-.637.408-1.023.407-1.655a3.433 3.433 0 00-.385-1.656c-.172-.349-.303-.523-.674-.895-.526-.529-1.026-.822-1.689-.992-.516-.132-1.281-.13-1.79.003zm1.583.84c.646.168 1.314.649 1.667 1.198.53.827.564 1.884.09 2.825-.186.368-.718.91-1.094 1.112-.337.18-.97.342-1.34.342-.371 0-1.004-.162-1.34-.342-.402-.216-.909-.742-1.117-1.16a2.632 2.632 0 01-.31-1.352c.005-.498.157-1.01.42-1.419.353-.551 1.01-1.03 1.648-1.201.353-.096 1.015-.097 1.376-.003zm-1.816 7.033c-1.985.374-3.599 1.761-4.228 3.635l-.126.376-.45-.885c-.436-.856-.457-.888-.638-.933-.33-.08-.39-.003-1.083 1.421-.615 1.264-.633 1.294-.8 1.323-.095.017-.733.111-1.42.21-.74.107-1.295.211-1.365.257-.14.092-.228.3-.187.447.016.06.501.567 1.077 1.128l1.048 1.02-.236 1.374c-.13.756-.236 1.436-.235 1.51 0 .191.276.418.462.381.075-.015.7-.323 1.389-.685l1.251-.657 1.307.686c1.177.619 1.322.682 1.462.642a.584.584 0 00.26-.183l.103-.14-.112-.645c-.061-.355-.104-.652-.095-.661.008-.01.21.178.446.416l.43.432-.272 1.598c-.254 1.5-.266 1.608-.192 1.751.18.35.318.312 1.884-.51.76-.4 1.417-.726 1.459-.726.042 0 .698.326 1.459.726 1.566.822 1.703.86 1.884.51.074-.143.062-.25-.193-1.75l-.27-1.6.43-.431c.236-.238.436-.425.445-.416.009.008-.034.306-.096.661l-.112.646.104.139a.583.583 0 00.26.183c.14.04.285-.024 1.463-.642l1.308-.686 1.252.658c.688.361 1.315.67 1.394.686.114.023.176-.004.299-.126.085-.085.155-.209.155-.274 0-.065-.106-.736-.236-1.492l-.236-1.374 1.048-1.02c.577-.562 1.062-1.07 1.078-1.13.04-.147-.047-.354-.19-.447-.071-.047-.611-.15-1.364-.258-.686-.098-1.324-.192-1.418-.208-.167-.029-.185-.058-.8-1.323-.694-1.424-.754-1.502-1.083-1.42-.181.044-.203.076-.638.932l-.45.885-.124-.366a5.407 5.407 0 00-2.746-3.14c-.848-.421-1.371-.54-2.47-.562-.639-.013-1.005.003-1.292.057zm2.235.884c1.883.389 3.338 1.906 3.632 3.789.025.16.027.292.005.292s-.58.08-1.24.179c-.66.098-1.224.178-1.253.178-.13 0-.304.252-.304.439 0 .176.049.237.7.871.386.375.655.671.599.657a18.744 18.744 0 00-.783-.117l-.681-.092-.683-1.4c-.376-.77-.733-1.451-.793-1.515a.375.375 0 00-.295-.117.375.375 0 00-.296.117c-.06.064-.417.747-.793 1.518l-.684 1.401-.68.09c-.374.05-.726.102-.782.116-.056.013.213-.28.598-.653.623-.603.7-.697.7-.847 0-.2-.068-.345-.197-.414-.074-.04-2.422-.41-2.598-.41-.023 0-.022-.132.003-.293.284-1.86 1.743-3.393 3.608-3.787.6-.126 1.61-.127 2.217-.002zm-7.27 3.723c.31.642.508.994.592 1.049.103.067 1.89.372 2.219.378.11.002-1.38 1.479-1.493 1.479-.052 0-.16.067-.243.149-.213.212-.198.392.057.68.197.225.21.261.328.936.068.387.114.711.104.722-.01.01-.44-.202-.953-.472-.513-.27-.993-.504-1.067-.52-.103-.022-.356.09-1.112.49-.538.286-.99.509-1.002.496-.013-.013.059-.509.16-1.101.101-.593.17-1.121.153-1.175-.017-.053-.394-.45-.838-.88l-.808-.785 1.1-.162c.605-.09 1.147-.194 1.205-.232.057-.039.322-.508.587-1.044.266-.536.497-.974.515-.974.017 0 .24.435.497.966zm13.358.008c.266.536.53 1.005.587 1.043.057.038.601.143 1.21.232l1.104.163-.811.783c-.446.43-.826.827-.843.88-.017.055.052.584.153 1.177.1.592.173 1.088.16 1.1-.013.014-.464-.21-1.002-.494-.757-.401-1.01-.513-1.113-.49-.073.015-.553.249-1.067.519-.513.27-.94.483-.95.473-.009-.01.037-.333.102-.72.116-.678.126-.709.326-.936.256-.291.272-.47.058-.683-.082-.082-.19-.15-.242-.15-.113 0-1.603-1.476-1.493-1.478.329-.006 2.115-.31 2.219-.378.083-.055.282-.407.591-1.049.256-.531.48-.966.497-.966.017 0 .249.438.514.974zm-6.626 1.958c.317.658.583 1.143.662 1.21.112.094.33.14 1.367.289.678.097 1.234.19 1.234.205 0 .016-.413.44-.917.94-.79.787-.917.935-.917 1.07 0 .085.091.68.203 1.323.111.643.196 1.175.189 1.183-.008.007-.512-.25-1.121-.57-.687-.362-1.165-.584-1.258-.584-.093 0-.572.222-1.258.584-.61.32-1.114.577-1.121.57-.008-.008.077-.54.189-1.182.111-.643.203-1.24.203-1.327 0-.138-.12-.277-.917-1.067-.504-.5-.917-.923-.917-.939 0-.016.555-.109 1.234-.206 1.037-.15 1.255-.195 1.366-.289.08-.067.345-.552.662-1.21.292-.604.543-1.098.559-1.098.016 0 .267.494.558 1.098z" fill="#1397D6"/><path clip-rule="evenodd" d="M11.54 1.1c-.63.166-1.15.47-1.646.965-.648.646-.945 1.245-1.066 2.148-.144 1.088.25 2.197 1.068 3 .459.451.807.668 1.416.883.414.146.495.158 1.134.158.639 0 .72-.012 1.134-.158.62-.219.963-.435 1.442-.91.34-.335.456-.493.65-.89.313-.637.408-1.023.407-1.655a3.433 3.433 0 00-.385-1.656c-.172-.349-.303-.523-.674-.895-.526-.529-1.026-.822-1.689-.992-.516-.132-1.281-.13-1.79.003zm1.583.84c.646.168 1.314.649 1.667 1.198.53.827.564 1.884.09 2.825-.186.368-.718.91-1.094 1.112-.337.18-.97.342-1.34.342-.371 0-1.004-.162-1.34-.342-.402-.216-.909-.742-1.117-1.16a2.632 2.632 0 01-.31-1.352c.005-.498.157-1.01.42-1.419.353-.551 1.01-1.03 1.648-1.201.353-.096 1.015-.097 1.376-.003zm-1.816 7.033c-1.985.374-3.599 1.761-4.228 3.635l-.126.376-.45-.885c-.436-.856-.457-.888-.638-.933-.33-.08-.39-.003-1.083 1.421-.615 1.264-.633 1.294-.8 1.323-.095.017-.733.111-1.42.21-.74.107-1.295.211-1.365.257-.14.092-.228.3-.187.447.016.06.501.567 1.077 1.128l1.048 1.02-.236 1.374c-.13.756-.236 1.436-.235 1.51 0 .191.276.418.462.381.075-.015.7-.323 1.389-.685l1.251-.657 1.307.686c1.177.619 1.322.682 1.462.642a.584.584 0 00.26-.183l.103-.14-.112-.645c-.061-.355-.104-.652-.095-.661.008-.01.21.178.446.416l.43.432-.272 1.598c-.254 1.5-.266 1.608-.192 1.751.18.35.318.312 1.884-.51.76-.4 1.417-.726 1.459-.726.042 0 .698.326 1.459.726 1.566.822 1.703.86 1.884.51.074-.143.062-.25-.193-1.75l-.27-1.6.43-.431c.236-.238.436-.425.445-.416.009.008-.034.306-.096.661l-.112.646.104.139a.583.583 0 00.26.183c.14.04.285-.024 1.463-.642l1.308-.686 1.252.658c.688.361 1.315.67 1.394.686.114.023.176-.004.299-.126.085-.085.155-.209.155-.274 0-.065-.106-.736-.236-1.492l-.236-1.374 1.048-1.02c.577-.562 1.062-1.07 1.078-1.13.04-.147-.047-.354-.19-.447-.071-.047-.611-.15-1.364-.258-.686-.098-1.324-.192-1.418-.208-.167-.029-.185-.058-.8-1.323-.694-1.424-.754-1.502-1.083-1.42-.181.044-.203.076-.638.932l-.45.885-.124-.366a5.407 5.407 0 00-2.746-3.14c-.848-.421-1.371-.54-2.47-.562-.639-.013-1.005.003-1.292.057zm2.235.884c1.883.389 3.338 1.906 3.632 3.789.025.16.027.292.005.292s-.58.08-1.24.179c-.66.098-1.224.178-1.253.178-.13 0-.304.252-.304.439 0 .176.049.237.7.871.386.375.655.671.599.657a18.744 18.744 0 00-.783-.117l-.681-.092-.683-1.4c-.376-.77-.733-1.451-.793-1.515a.375.375 0 00-.295-.117.375.375 0 00-.296.117c-.06.064-.417.747-.793 1.518l-.684 1.401-.68.09c-.374.05-.726.102-.782.116-.056.013.213-.28.598-.653.623-.603.7-.697.7-.847 0-.2-.068-.345-.197-.414-.074-.04-2.422-.41-2.598-.41-.023 0-.022-.132.003-.293.284-1.86 1.743-3.393 3.608-3.787.6-.126 1.61-.127 2.217-.002zm-7.27 3.723c.31.642.508.994.592 1.049.103.067 1.89.372 2.219.378.11.002-1.38 1.479-1.493 1.479-.052 0-.16.067-.243.149-.213.212-.198.392.057.68.197.225.21.261.328.936.068.387.114.711.104.722-.01.01-.44-.202-.953-.472-.513-.27-.993-.504-1.067-.52-.103-.022-.356.09-1.112.49-.538.286-.99.509-1.002.496-.013-.013.059-.509.16-1.101.101-.593.17-1.121.153-1.175-.017-.053-.394-.45-.838-.88l-.808-.785 1.1-.162c.605-.09 1.147-.194 1.205-.232.057-.039.322-.508.587-1.044.266-.536.497-.974.515-.974.017 0 .24.435.497.966zm13.358.008c.266.536.53 1.005.587 1.043.057.038.601.143 1.21.232l1.104.163-.811.783c-.446.43-.826.827-.843.88-.017.055.052.584.153 1.177.1.592.173 1.088.16 1.1-.013.014-.464-.21-1.002-.494-.757-.401-1.01-.513-1.113-.49-.073.015-.553.249-1.067.519-.513.27-.94.483-.95.473-.009-.01.037-.333.102-.72.116-.678.126-.709.326-.936.256-.291.272-.47.058-.683-.082-.082-.19-.15-.242-.15-.113 0-1.603-1.476-1.493-1.478.329-.006 2.115-.31 2.219-.378.083-.055.282-.407.591-1.049.256-.531.48-.966.497-.966.017 0 .249.438.514.974zm-6.626 1.958c.317.658.583 1.143.662 1.21.112.094.33.14 1.367.289.678.097 1.234.19 1.234.205 0 .016-.413.44-.917.94-.79.787-.917.935-.917 1.07 0 .085.091.68.203 1.323.111.643.196 1.175.189 1.183-.008.007-.512-.25-1.121-.57-.687-.362-1.165-.584-1.258-.584-.093 0-.572.222-1.258.584-.61.32-1.114.577-1.121.57-.008-.008.077-.54.189-1.182.111-.643.203-1.24.203-1.327 0-.138-.12-.277-.917-1.067-.504-.5-.917-.923-.917-.939 0-.016.555-.109 1.234-.206 1.037-.15 1.255-.195 1.366-.289.08-.067.345-.552.662-1.21.292-.604.543-1.098.559-1.098.016 0 .267.494.558 1.098z" stroke="#1397D6" stroke-width=".6" mask="url(#a)"/></svg>