<svg width="22" height="23" viewBox="0 0 22 23" fill="none" xmlns="http://www.w3.org/2000/svg"><path fill-rule="evenodd" clip-rule="evenodd" d="M.383 1.088a.92.92 0 00-.285.293c-.106.188-.107.211-.09 2.29l.017 2.1.136.438c.497 1.606 1.705 2.799 3.302 3.258l.485.139.06.39c.364 2.333 2.012 4.427 4.219 5.36l.415.177v.582c0 .56-.004.582-.104.582-.16 0-.46.19-.556.352-.048.08-.224.56-.393 1.063l-.306.917-.241.026c-.29.03-.518.157-.633.353-.146.247-.91 2.602-.91 2.805a.81.81 0 00.393.665l.185.104h9.846l.185-.104a.813.813 0 00.394-.665c0-.203-.765-2.558-.91-2.805-.117-.196-.343-.322-.634-.353l-.241-.026-.306-.917c-.169-.504-.345-.982-.393-1.063-.096-.162-.396-.352-.556-.352-.1 0-.104-.023-.104-.582v-.582l.422-.18a7.108 7.108 0 004.21-5.357l.065-.39.484-.14c1.592-.458 2.804-1.654 3.3-3.257l.136-.439.017-2.1c.017-2.08.016-2.1-.09-2.29a.907.907 0 00-.292-.294l-.185-.104-10.432.002H.562l-.18.104zM3.927 5.23c0 3.077.062 2.79-.542 2.5a3.091 3.091 0 01-1.463-1.423c-.29-.578-.315-.748-.34-2.317L1.56 2.554h2.368V5.23zm12.561.823c-.02 3.764-.017 3.71-.289 4.53-.537 1.618-1.891 2.949-3.544 3.483-.497.16-.64.25-.766.472-.095.17-.103.26-.103 1.171v.988h-1.572v-.988c0-1.317-.028-1.37-.87-1.644-.883-.287-1.515-.68-2.203-1.367-.751-.75-1.2-1.519-1.442-2.468-.178-.696-.2-1.183-.2-4.472V2.554h11.009l-.02 3.499zm3.93-2.063c-.026 1.57-.05 1.739-.34 2.317a3.092 3.092 0 01-1.463 1.424c-.604.289-.542.576-.542-2.5V2.553h2.368l-.023 1.436zm-7.52 14.644c.064.187.116.359.116.38 0 .022-.906.04-2.014.04-1.108 0-2.014-.019-2.014-.041 0-.035.13-.435.22-.684.018-.049.404-.06 1.8-.05l1.778.014.115.34zm1.573 2.357c.063.187.115.359.115.38 0 .022-1.614.04-3.586.04-1.972 0-3.586-.019-3.586-.041 0-.035.13-.435.22-.684.018-.049.718-.059 3.372-.049l3.35.013.115.34z" fill="#1397D6"/></svg>