<svg width="28" height="23" viewBox="0 0 28 23" fill="none" xmlns="http://www.w3.org/2000/svg"><path fill-rule="evenodd" clip-rule="evenodd" d="M10.713 1.833C4.579 3.46.12 4.63.055 4.63c-.05 0-.062.314-.051 1.308l.014 1.309.657.174.656.173.028 6.664.027 6.663.124.317c.267.68.699 1.167 1.294 1.46.5.244.845.284 2.421.284h1.44l-.002-2.244c0-1.308-.024-2.348-.056-2.493-.103-.46-.333-.87-.704-1.252-.592-.61-1.07-.785-2.151-.786l-.698-.001V12.14c0-2.908.017-4.066.06-4.066.033 0 .502.12 1.042.264.699.188.974.285.955.336-.104.278-.36 3.877-.36 5.046v.672l.232.028 1.025.12a23.03 23.03 0 015.443 1.33c.904.342 1.005.387 1.837.797l.688.339.734-.368c2.217-1.111 4.857-1.9 7.107-2.121.316-.031.77-.073 1.007-.093l.432-.036-.034-1.223c-.035-1.279-.158-3.028-.279-3.99a12.59 12.59 0 01-.065-.573c.003-.005 1.15-.311 2.55-.68l2.543-.672.015-1.296L28 4.658l-6.962-1.831L14.022.983c-.03-.008-1.52.375-3.31.85zm9.334 2.518c3.305.872 6.014 1.592 6.021 1.599.007.007-2.705.73-6.027 1.605l-6.04 1.592-6.049-1.595c-3.327-.877-6.02-1.604-5.984-1.617.146-.05 11.95-3.161 12.008-3.165.034-.002 2.766.71 6.07 1.581zm-8.49.803c-.015.04-.02.429-.012.862l.016.788h4.868V5.11l-2.422-.015c-1.955-.012-2.427 0-2.45.06zM8.47 9.48c.827.217 2.39.63 3.473.917 1.084.287 2.019.52 2.08.516.06-.004 1.696-.427 3.636-.94 1.94-.513 3.544-.915 3.564-.893.082.092.318 2.551.32 3.327v.407l-.177.031c-.098.018-.436.07-.752.118-1.858.278-3.953.89-5.73 1.673l-.89.392-.888-.392c-1.986-.875-3.788-1.374-6.482-1.794l-.178-.028v-.385c0-.679.218-3.067.303-3.327.014-.04.068-.062.12-.046.053.016.774.207 1.6.424zm-3.897 8.59c.098.062.227.195.287.297.1.17.109.286.109 1.525v1.34h-.631c-.727 0-.973-.086-1.169-.414-.108-.18-.115-.269-.115-1.526v-1.334h.67c.573 0 .697.016.849.112z" fill="#1397D6"/></svg>