<svg width="20" height="20" viewBox="0 0 20 20" fill="none" xmlns="http://www.w3.org/2000/svg"><g clip-path="url(#clip0_212_2599)"><path d="M10 8.333a2.5 2.5 0 110-5 2.5 2.5 0 010 5zm-2.527 4.374a2.652 2.652 0 015.053 0 .834.834 0 001.615-.416c-1.093-4.123-7.192-4.121-8.281 0a.833.833 0 101.613.416zm2.535 7.014c-.412 0-.808-.15-1.115-.424l-3.124-2.63H3.333A3.333 3.333 0 010 13.333v-10A3.333 3.333 0 013.333 0h13.334A3.333 3.333 0 0120 3.333v10a3.334 3.334 0 01-3.333 3.334h-2.378l-3.206 2.65c-.297.262-.68.405-1.075.404zM3.333 1.667a1.667 1.667 0 00-1.666 1.666v10A1.666 1.666 0 003.333 15h2.741c.197 0 .387.07.537.196l3.372 2.842 3.476-2.847A.833.833 0 0113.99 15h2.677a1.667 1.667 0 001.666-1.667v-10a1.667 1.667 0 00-1.666-1.666H3.333z" fill="#fff"/></g><defs><clipPath id="clip0_212_2599"><path fill="#fff" d="M0 0h20v20H0z"/></clipPath></defs></svg>