<svg width="20" height="20" viewBox="0 0 20 20" fill="none" xmlns="http://www.w3.org/2000/svg"><g clip-path="url(#clip0_212_2605)"><path d="M3.333 5a2.485 2.485 0 01-1.768-.733L.278 3.122a.834.834 0 111.11-1.245l1.32 1.179a.834.834 0 001.214.033L6.926.23a.833.833 0 011.148 1.207L5.083 4.282A2.47 2.47 0 013.333 5zM20 3.333a.833.833 0 00-.834-.833h-8.333a.833.833 0 100 1.667h8.333A.833.833 0 0020 3.333zM5.083 10.948l2.99-2.845a.833.833 0 10-1.147-1.206l-3 2.859a.853.853 0 01-1.179 0L1.422 8.435A.833.833 0 00.244 9.613l1.32 1.321a2.5 2.5 0 003.522.014h-.003zM20 10a.833.833 0 00-.834-.833h-8.333a.833.833 0 100 1.666h8.333A.833.833 0 0020 10zM5.083 17.615l2.988-2.845a.833.833 0 10-1.149-1.207l-3 2.86a.833.833 0 01-1.213-.034l-1.321-1.178a.834.834 0 10-1.11 1.245L1.565 17.6a2.5 2.5 0 003.521.014h-.003zM20 16.667a.833.833 0 00-.834-.834h-8.333a.833.833 0 100 1.667h8.333a.833.833 0 00.834-.833z" fill="#fff"/></g><defs><clipPath id="clip0_212_2605"><path fill="#fff" d="M0 0h20v20H0z"/></clipPath></defs></svg>