<svg width="20" height="20" viewBox="0 0 20 20" fill="none" xmlns="http://www.w3.org/2000/svg"><g clip-path="url(#clip0_212_2592)" fill="#fff"><path d="M10 0a10 10 0 1010 10A10.011 10.011 0 0010 0zm0 18.333A8.333 8.333 0 1118.333 10 8.342 8.342 0 0110 18.333z"/><path d="M10 8.334h-.834a.833.833 0 100 1.666H10v5a.834.834 0 001.666 0v-5A1.667 1.667 0 0010 8.334zm0-1.667a1.25 1.25 0 100-2.5 1.25 1.25 0 000 2.5z"/></g><defs><clipPath id="clip0_212_2592"><path fill="#fff" d="M0 0h20v20H0z"/></clipPath></defs></svg>