<svg width="20" height="20" viewBox="0 0 20 20" fill="none" xmlns="http://www.w3.org/2000/svg"><g clip-path="url(#clip0_212_2596)" fill="#fff"><path d="M20 9.372A10.011 10.011 0 1010.014 20h5.82A4.171 4.171 0 0020 15.833v-6.46zm-1.667 6.461a2.5 2.5 0 01-2.5 2.5h-5.819a8.367 8.367 0 01-7.966-5.818 8.264 8.264 0 01-.327-3.48 8.37 8.37 0 017.213-7.3c.36-.045.721-.068 1.084-.068a8.267 8.267 0 015.315 1.916 8.367 8.367 0 013 5.869v6.381z"/><path d="M6.666 7.5H10a.833.833 0 000-1.667H6.666a.833.833 0 000 1.667zm6.667 1.667H6.666a.833.833 0 000 1.667h6.667a.833.833 0 000-1.667zm0 3.333H6.666a.833.833 0 100 1.667h6.667a.833.833 0 000-1.667z"/></g><defs><clipPath id="clip0_212_2596"><path fill="#fff" d="M0 0h20v20H0z"/></clipPath></defs></svg>