<svg width="26" height="20" viewBox="0 0 26 20" fill="none" xmlns="http://www.w3.org/2000/svg"><path fill-rule="evenodd" clip-rule="evenodd" d="M5.164.253C2.676.637.67 2.553.149 5.04c-.2.956-.199 1.533.005 2.443.533 2.375 2.35 4.153 4.806 4.703.685.154 1.969.119 2.703-.073 2.572-.673 4.243-2.57 4.635-5.262.196-1.342-.258-3.005-1.144-4.186C10.144 1.317 8.612.436 6.9.217c-.739-.094-.92-.09-1.737.036zm1.524 2.472l.024.422.674.166c.37.091.705.2.742.24.037.042-.008.32-.102.618-.142.455-.198.542-.35.542-.099 0-.2-.032-.224-.071C7.376 4.52 6.357 4.369 6 4.425c-.88.139-.695.602.373.937 1.573.495 2.088.978 2.088 1.96 0 .777-.433 1.352-1.269 1.686l-.48.192-.025.424c-.028.478-.093.546-.518.547-.504.003-.557-.047-.557-.529 0-.403-.013-.433-.195-.433-.256 0-1.193-.286-1.382-.422-.14-.102-.141-.133-.015-.625.072-.285.147-.562.166-.616.023-.07.17-.036.505.112.616.274 1.706.357 2.02.154.259-.167.27-.476.022-.647-.1-.07-.488-.218-.861-.33-1.157-.348-1.696-.77-1.89-1.481-.241-.883.3-1.72 1.302-2.015.303-.09.328-.119.33-.385.001-.599.047-.65.574-.65h.475l.025.421zm6.398 3.731c-.026.61-.072 1.188-.103 1.288l-.055.18h6.53c7.377 0 6.638.078 6.407-.67a2.712 2.712 0 00-1.467-1.674l-.408-.185-5.428-.023-5.429-.022-.047 1.106zm-1.13 3.574c-.445.647-1.319 1.505-1.913 1.88-1.139.717-2.226 1.065-3.571 1.142l-.9.052v4.818l.215.453a2.746 2.746 0 001.255 1.276l.404.197h16.626l.477-.238c.53-.264.93-.691 1.212-1.294.185-.394.185-.4.185-4.57V9.57l-6.822-.021-6.822-.02-.345.5z" fill="#1397D6"/></svg>