<svg width="40" height="41" viewBox="0 0 40 41" fill="none" xmlns="http://www.w3.org/2000/svg"><rect y=".5" width="40" height="40" rx="10" fill="#1397D6"/><path fill-rule="evenodd" clip-rule="evenodd" d="M24.507 10.545a5.02 5.02 0 00-1.8.724 7.22 7.22 0 00-.645.526c-.712.647-4.232 4.218-4.435 4.5a4.818 4.818 0 00-.805 1.753c-.113.49-.122 1.495-.018 1.983.21.98.682 1.842 1.356 2.478.272.257.763.613.845.613.024 0 .247-.209.497-.464.544-.555.599-.68.567-1.275l-.018-.354-.294-.294c-.465-.466-.674-.981-.67-1.663 0-.408.074-.697.277-1.095.127-.249.345-.479 2.354-2.488 2.01-2.009 2.24-2.227 2.488-2.354.404-.206.685-.275 1.115-.275.237 0 .457.024.606.068.8.231 1.415.846 1.646 1.645.09.313.09.9 0 1.213-.17.584-.239.67-1.771 2.213l-1.421 1.43.137.565c.177.732.244 1.432.191 2.013a3.274 3.274 0 00-.024.449c.026.032 4.174-4.154 4.36-4.4a5.098 5.098 0 00.88-1.899c.1-.464.1-1.49 0-1.956a4.845 4.845 0 00-1.748-2.757 5.108 5.108 0 00-1.839-.861c-.412-.091-1.41-.112-1.831-.038zm-3.676 7.462c-.54.542-.596.657-.596 1.242v.392l.285.283c.477.474.693.995.693 1.672 0 .43-.074.743-.264 1.115-.128.249-.355.489-2.51 2.644-2.158 2.157-2.396 2.383-2.645 2.51-.15.077-.38.17-.509.208-.313.09-.9.09-1.213 0a2.398 2.398 0 01-1.645-1.645c-.09-.314-.09-.9 0-1.213.171-.592.224-.657 1.924-2.367l1.575-1.585-.13-.53c-.187-.758-.233-1.191-.204-1.913l.025-.608-2.243 2.25c-1.233 1.236-2.321 2.355-2.419 2.484a5.103 5.103 0 00-.88 1.897c-.1.465-.1 1.491 0 1.956a4.773 4.773 0 003.626 3.626c.465.1 1.491.1 1.956 0a5.118 5.118 0 001.898-.88c.129-.096 1.301-1.242 2.605-2.546 2.108-2.109 2.4-2.415 2.63-2.764a4.424 4.424 0 00.733-1.85c.12-.702.09-1.308-.102-2.038a4.574 4.574 0 00-1.23-2.114c-.232-.231-.705-.586-.864-.647-.035-.013-.22.144-.496.42z" fill="#fff"/></svg>