<svg width="25" height="32" viewBox="0 0 25 32" fill="none" xmlns="http://www.w3.org/2000/svg"><path fill-rule="evenodd" clip-rule="evenodd" d="M11.125.074l-.792.196C8.29.777 6.363 2.365 5.386 4.352c-.639 1.3-.751 1.818-.751 3.455 0 1.208.023 1.472.18 2.025.409 1.437 1.44 3.067 2.469 3.902l.476.386-1.603.048c-1.802.053-2.113.111-3.066.573-1.259.61-2.306 1.9-2.65 3.267-.181.715-.178 9.446.003 10.146a5.11 5.11 0 003.648 3.668c.427.11 1.43.126 8.26.126 8.547 0 8.183.019 9.223-.49a5.108 5.108 0 002.684-3.304c.18-.7.184-9.431.004-10.146-.421-1.668-1.774-3.072-3.482-3.613-.466-.147-.815-.183-2.196-.225l-1.642-.05.476-.386c1.017-.826 2.058-2.462 2.457-3.863.243-.852.302-2.663.117-3.58A7.837 7.837 0 0015.794.817C14.62.232 13.985.085 12.51.057c-.675-.012-1.298-.004-1.385.017zm2.062 1.624c1.289.18 2.375.706 3.345 1.622 1.335 1.26 1.946 2.67 1.944 4.487-.002 1.097-.148 1.763-.586 2.674-.787 1.631-2.345 2.906-4.074 3.333-.745.183-2.184.183-2.929 0-3.09-.763-5.142-3.894-4.6-7.018.24-1.383.845-2.501 1.88-3.476.696-.656 1.378-1.073 2.204-1.35 1.004-.335 1.81-.413 2.816-.272zM20.23 15.95c1.246.323 2.21 1.35 2.48 2.64.12.57.122 8.305.003 8.952-.224 1.215-1.073 2.189-2.284 2.617l-.288.102.033-3.388.032-3.387-.212-.253c-.267-.32-.64-.402-.99-.22-.47.242-.479.322-.479 4.009v3.337H6.178v-6.965l-.191-.206c-.344-.372-.852-.378-1.188-.014-.17.183-.182.28-.23 1.803-.03.886-.053 2.423-.053 3.417 0 1.392-.023 1.807-.1 1.807-.054 0-.321-.106-.594-.236-.895-.425-1.615-1.357-1.829-2.369-.06-.28-.09-1.783-.09-4.51 0-3.43.02-4.18.125-4.639.268-1.182 1.227-2.173 2.41-2.492.667-.18 15.101-.185 15.792-.005z" fill="#fff"/></svg>