<svg width="32" height="32" viewBox="0 0 32 32" fill="none" xmlns="http://www.w3.org/2000/svg"><path clip-rule="evenodd" d="M5.332 5.332l10.298-1.93a2 2 0 01.737 0l10.298 1.93v12.57a11 11 0 01-5.17 9.328l-4.966 3.104a1 1 0 01-1.06 0l-4.967-3.104a11 11 0 01-5.17-9.328V5.332z" stroke="#1499D8" stroke-width="1.5"/><path d="M20.829 15.124l-4.5-4a.5.5 0 00-.66 0l-4.5 4a.5.5 0 00.33.875h.5v4.5a.5.5 0 00.5.5h7a.5.5 0 00.5-.5V16h.5a.5.5 0 00.33-.875zM16.499 20h-1v-1.5a.5.5 0 011 0V20zm2.5 0h-1.5v-1.5a1.5 1.5 0 10-3 0V20h-1.5v-4h6v4zm-6.185-5l3.185-2.83L19.184 15h-6.37z" fill="#1499D8"/></svg>