<svg width="28" height="28" viewBox="0 0 28 28" fill="none" xmlns="http://www.w3.org/2000/svg">
<rect width="28" height="28" rx="6" fill="#7C509A"/>
<path d="M18.3778 6.68292C15.7097 6.1734 12.939 6.1734 10.2709 6.68292C9.09084 6.93768 7.60288 8.36433 7.34634 9.48528C6.88455 11.6762 6.88455 13.9181 7.34634 16.109C7.65419 17.23 9.14215 18.6566 10.2709 18.9114C10.3223 18.9114 10.3736 18.9623 10.3736 19.0133V22.2233C10.3736 22.3761 10.5788 22.478 10.6814 22.3252L12.2207 20.7457C12.2207 20.7457 13.4521 19.4719 13.6573 19.268C13.6573 19.268 13.7086 19.2171 13.7599 19.2171C15.2992 19.2681 16.8898 19.1152 18.4291 18.8604C19.6092 18.6057 21.0971 17.179 21.3537 16.0581C21.8154 13.8671 21.8154 11.6253 21.3537 9.43433C21.0458 8.36433 19.5579 6.93768 18.3778 6.68292ZM18.4291 16.2619C18.1725 16.7714 17.8647 17.179 17.3516 17.4338C17.1976 17.4847 17.0437 17.5357 16.8898 17.5866C16.6846 17.5357 16.5306 17.4847 16.3767 17.4338C14.7348 16.7714 13.1956 15.8543 11.9641 14.5295C11.2971 13.7652 10.7327 12.8991 10.2709 11.9819C10.0657 11.5234 9.86047 11.1157 9.70654 10.6572C9.55262 10.2496 9.80916 9.84194 10.0657 9.53623C10.3222 9.23052 10.6301 9.02671 10.9893 8.87385C11.2458 8.721 11.5024 8.8229 11.7076 9.02671C12.1181 9.53623 12.5285 10.0457 12.8364 10.6062C13.0416 10.9629 12.9903 11.3705 12.6312 11.6253C12.5285 11.6762 12.4772 11.7272 12.3746 11.8291C12.3233 11.88 12.2207 11.931 12.1694 12.0329C12.0668 12.1857 12.0668 12.3386 12.1181 12.4914C12.5285 13.6633 13.2982 14.5805 14.4783 15.09C14.6835 15.1919 14.8374 15.2428 15.094 15.2428C15.4531 15.1919 15.6071 14.7843 15.8636 14.5805C16.1202 14.3767 16.428 14.3767 16.7359 14.5295C16.9924 14.6824 17.249 14.8862 17.5568 15.09C17.8133 15.2938 18.0699 15.4467 18.3264 15.6505C18.4804 15.7524 18.5317 16.0071 18.4291 16.2619ZM16.2741 12.4405C16.1715 12.4405 16.2228 12.4405 16.2741 12.4405C16.0688 12.4405 16.0175 12.3386 15.9662 12.1857C15.9662 12.0838 15.9662 11.931 15.9149 11.8291C15.8636 11.6253 15.761 11.4215 15.5558 11.2686C15.4531 11.2176 15.3505 11.1667 15.2479 11.1157C15.094 11.0648 14.9914 11.0648 14.8374 11.0648C14.6835 11.0138 14.6322 10.9119 14.6322 10.7591C14.6322 10.6572 14.7861 10.5553 14.8887 10.5553C15.7097 10.6062 16.3254 11.0648 16.428 12.0329C16.428 12.0838 16.428 12.1857 16.428 12.2367C16.428 12.3386 16.3767 12.4405 16.2741 12.4405ZM15.761 10.1986C15.5044 10.0967 15.2479 9.9948 14.9401 9.94384C14.8374 9.94384 14.6835 9.89289 14.5809 9.89289C14.427 9.89289 14.3243 9.79099 14.3757 9.63813C14.3757 9.48528 14.4783 9.38337 14.6322 9.43433C15.1453 9.48528 15.6071 9.58718 16.0688 9.79099C16.9924 10.2496 17.5055 11.0138 17.6594 12.0329C17.6594 12.0838 17.6594 12.1348 17.6594 12.1857C17.6594 12.2876 17.6594 12.3895 17.6594 12.5424C17.6594 12.5933 17.6594 12.6443 17.6594 12.6953C17.6081 12.8991 17.249 12.95 17.1976 12.6953C17.1976 12.6443 17.1463 12.5424 17.1463 12.4914C17.1463 12.0329 17.0437 11.5743 16.8385 11.1667C16.5306 10.7081 16.1715 10.4024 15.761 10.1986ZM18.5317 13.2557C18.3777 13.2557 18.2751 13.1029 18.2751 12.95C18.2751 12.6443 18.2238 12.3386 18.1725 12.0329C17.9673 10.4024 16.6332 9.07766 15.0427 8.8229C14.7861 8.77195 14.5296 8.77195 14.3243 8.721C14.1704 8.721 13.9652 8.721 13.9139 8.51719C13.8626 8.36434 14.0165 8.21148 14.1704 8.21148C14.2217 8.21148 14.273 8.21148 14.273 8.21148C14.3757 8.21148 16.3767 8.26243 14.273 8.21148C16.428 8.26243 18.2238 9.68909 18.583 11.8291C18.6343 12.1857 18.6856 12.5424 18.6856 12.95C18.7882 13.1029 18.6856 13.2557 18.5317 13.2557Z" fill="white"/>
</svg>
