<svg width="40" height="18" viewBox="0 0 40 18" fill="none" xmlns="http://www.w3.org/2000/svg"><path d="M40 18l-6.17-9L40 0H0v18h40z" fill="#FFD337"/><path fill-rule="evenodd" clip-rule="evenodd" d="M18.284 3.062c.084.04.19.127.236.192.046.065.737 1.21 1.536 2.544.8 1.334 1.457 2.431 1.462 2.437.004.006.837-.369 1.85-.832 1.694-.774 1.86-.842 2.045-.841.142 0 .233.022.308.074.166.116.279.298.279.449 0 .126-1.417 6.295-1.502 6.538a.613.613 0 01-.386.341c-.084.023-2.323.036-6.118.036h-5.986l-.171-.082a.655.655 0 01-.24-.196c-.04-.063-.415-1.54-.841-3.313-.58-2.402-.767-3.24-.755-3.366.03-.32.298-.527.64-.493.123.012.486.16 1.196.487 1.967.904 2.658 1.215 2.67 1.201.007-.007.695-1.151 1.528-2.542 1.64-2.734 1.586-2.66 1.934-2.693a.56.56 0 01.315.059z" fill="#000"/></svg>