<svg width="28" height="28" viewBox="0 0 28 28" fill="none" xmlns="http://www.w3.org/2000/svg">
<rect width="28" height="28" rx="6" fill="#48C95F"/>
<path d="M19.5488 8.44453C18.1659 7.06641 16.3219 6.30078 14.3756 6.30078C10.3293 6.30078 7.05122 9.56745 7.05122 13.5997C7.05122 14.8758 7.40976 16.1518 8.02439 17.2237L7 21.0008L10.8927 19.9799C11.9683 20.5414 13.1463 20.8477 14.3756 20.8477C18.4219 20.8477 21.7 17.581 21.7 13.5487C21.6488 11.6602 20.9317 9.82266 19.5488 8.44453ZM17.9098 16.2029C17.7561 16.6112 17.039 17.0195 16.6805 17.0706C16.3732 17.1216 15.9634 17.1216 15.5537 17.0195C15.2976 16.9174 14.939 16.8154 14.5293 16.6112C12.6854 15.8456 11.5073 14.0081 11.4049 13.8549C11.3024 13.7529 10.6366 12.8852 10.6366 11.9664C10.6366 11.0477 11.0976 10.6393 11.2512 10.4352C11.4049 10.231 11.6098 10.231 11.7634 10.231C11.8659 10.231 12.0195 10.231 12.1219 10.231C12.2244 10.231 12.378 10.1799 12.5317 10.5372C12.6854 10.8945 13.0439 11.8133 13.0951 11.8643C13.1463 11.9664 13.1463 12.0685 13.0951 12.1706C13.0439 12.2727 12.9927 12.3747 12.8902 12.4768C12.7878 12.5789 12.6854 12.732 12.6341 12.7831C12.5317 12.8852 12.4293 12.9872 12.5317 13.1404C12.6341 13.3445 12.9927 13.906 13.5561 14.4164C14.2732 15.0289 14.8366 15.2331 15.0415 15.3352C15.2463 15.4372 15.3488 15.3862 15.4512 15.2841C15.5537 15.182 15.9122 14.7737 16.0146 14.5695C16.1171 14.3654 16.2707 14.4164 16.4244 14.4674C16.578 14.5185 17.5 14.9779 17.6537 15.0799C17.8585 15.182 17.961 15.2331 18.0122 15.2841C18.0634 15.4372 18.0634 15.7945 17.9098 16.2029Z" fill="white"/>
</svg>
